<svg width="800" height="753" viewBox="0 0 800 753" fill="none" xmlns="http://www.w3.org/2000/svg">
<g clip-path="url(#clip0_274_4465)">
<path d="M3.85046e-05 752.584C56.6863 314.93 214.122 0 399.551 0C584.979 0 742.474 314.93 799.16 752.584H3.85046e-05Z" fill="#3EB5D7"/>
<path d="M360.981 478.561C325.898 478.561 297.457 441.434 297.457 395.635C297.457 349.837 325.898 312.71 360.981 312.71C396.064 312.71 424.505 349.837 424.505 395.635C424.505 441.434 396.064 478.561 360.981 478.561Z" fill="white"/>
<path d="M343.04 336.144C347.423 336.144 351.63 337.021 355.663 338.482C347.014 340.878 340.644 348.709 340.644 358.117C340.644 369.396 349.819 378.571 361.098 378.571C370.799 378.571 378.922 371.792 380.967 362.676C385.759 372.084 388.623 383.422 388.623 395.635C388.623 428.478 368.227 455.127 343.04 455.127C317.852 455.127 297.457 428.478 297.457 395.635C297.457 362.792 317.852 336.144 343.04 336.144Z" fill="#333333"/>
<path d="M214.882 478.561C179.799 478.561 151.358 441.434 151.358 395.635C151.358 349.837 179.799 312.71 214.882 312.71C249.965 312.71 278.406 349.837 278.406 395.635C278.406 441.434 249.965 478.561 214.882 478.561Z" fill="white"/>
<path d="M196.941 336.144C201.324 336.144 205.532 337.021 209.564 338.482C200.915 340.878 194.545 348.709 194.545 358.117C194.545 369.396 203.72 378.571 214.999 378.571C224.7 378.571 232.823 371.792 234.868 362.676C239.66 372.084 242.524 383.422 242.524 395.635C242.524 428.478 222.129 455.127 196.941 455.127C171.754 455.127 151.358 428.478 151.358 395.635C151.358 362.792 171.754 336.144 196.941 336.144Z" fill="#333333"/>
</g>
<defs>
<clipPath id="clip0_274_4465">
<rect width="799.16" height="752.584" fill="white" transform="matrix(-1 0 0 1 799.16 0)"/>
</clipPath>
</defs>
</svg>
