<svg width="48" height="48" viewBox="0 0 48 48" fill="none" xmlns="http://www.w3.org/2000/svg">
<path d="M31.8662 19.229C31.3076 18.2649 30.6331 17.5573 29.851 17.1021L29.5697 16.9408L9.88552 5.57387C9.18207 5.16835 8.56966 5.07318 8.04828 5.28835L7.87034 5.37525C7.31172 5.69387 7.03034 6.30215 7.03034 7.20008V30.1118C7.03034 31.0139 7.31172 31.9449 7.87034 32.909C8.42896 33.8732 9.09932 34.5808 9.88552 35.0318L29.851 46.56C30.6331 47.011 31.3076 47.0814 31.8662 46.7628C32.4248 46.4441 32.7021 45.8317 32.7021 44.9338V22.0221C32.7021 21.1242 32.4248 20.189 31.8662 19.229ZM26.5862 31.1132C26.3131 31.2704 25.9738 31.229 25.5724 30.9973L21.2938 28.527V33.4387C21.2938 33.9021 21.1572 34.2125 20.8841 34.3656C20.611 34.5228 20.2717 34.4815 19.8662 34.2497C19.4607 34.018 19.1255 33.6663 18.8524 33.1946C18.5752 32.7228 18.4386 32.2553 18.4386 31.7918V26.8801L14.16 24.4097C13.7586 24.178 13.4193 23.8263 13.1462 23.3546C12.8731 22.8828 12.7366 22.4153 12.7366 21.9518C12.7366 21.4884 12.8731 21.178 13.1462 21.0208C13.4193 20.8635 13.7586 20.9049 14.16 21.1366L18.4386 23.607V18.6994C18.4386 18.2359 18.5752 17.9256 18.8524 17.7684C19.1255 17.6111 19.4607 17.6525 19.8662 17.8842C20.2717 18.1201 20.611 18.4718 20.8841 18.9435C21.1572 19.4153 21.2938 19.8828 21.2938 20.3463V25.2539L21.48 25.3615L24.331 27.0084L25.5724 27.7242C25.9738 27.9559 26.3131 28.3118 26.5862 28.7835C26.8593 29.2553 26.9959 29.7228 26.9959 30.1863C26.9959 30.6497 26.8593 30.9559 26.5862 31.1132Z" fill="white"/>
<path d="M21.48 25.3615L18.4386 26.8801L14.16 24.4097C13.7586 24.178 13.4193 23.8263 13.1462 23.3546C12.8731 22.8828 12.7366 22.4153 12.7366 21.9518C12.7366 21.4884 12.8731 21.178 13.1462 21.0208C13.4193 20.8635 13.7586 20.9049 14.16 21.1366L18.4386 23.607L21.2938 22.1793V25.2539L21.48 25.3615Z" fill="white"/>
<path d="M21.2938 20.3463V22.1793L18.4386 23.607V18.6994C18.4386 18.2359 18.5752 17.9256 18.8524 17.7684C19.1255 17.6111 19.4607 17.6525 19.8662 17.8842C20.2717 18.1201 20.611 18.4718 20.8841 18.9435C21.1572 19.4153 21.2938 19.8828 21.2938 20.3463Z" fill="white"/>
<path d="M26.9959 30.1863C26.9959 30.6497 26.8593 30.9559 26.5862 31.1132C26.3131 31.2704 25.9738 31.229 25.5724 30.9973L21.2938 28.527L24.331 27.0084L25.5724 27.7242C25.9738 27.9559 26.3131 28.3118 26.5862 28.7835C26.8593 29.2553 26.9959 29.7228 26.9959 30.1863Z" fill="white"/>
<path d="M24.331 27.0084L21.2938 28.527V33.4387C21.2938 33.9021 21.1572 34.2125 20.8841 34.3656C20.611 34.5228 20.2717 34.4815 19.8662 34.2497C19.4607 34.018 19.1255 33.6663 18.8524 33.1946C18.5752 32.7228 18.4386 32.2553 18.4386 31.7918V26.8801L21.48 25.3615L24.331 27.0084Z" fill="white"/>
<path d="M40.9779 17.8842V40.7959C40.9779 41.6938 40.7007 42.3062 40.1421 42.6248L39.9641 42.7117L31.8662 46.7628C32.4248 46.4441 32.7021 45.8317 32.7021 44.9338V22.0221C32.7021 21.1242 32.4248 20.189 31.8662 19.229C31.3076 18.2649 30.6331 17.5573 29.851 17.1021L29.5697 16.9408L9.88552 5.57387C9.18207 5.16835 8.56966 5.07318 8.04828 5.28835L16.1462 1.23728C16.7048 0.918661 17.3752 0.984868 18.1614 1.4359L38.1269 12.9642C38.909 13.4193 39.5835 14.1269 40.1421 15.0911C40.7007 16.0511 40.9779 16.9862 40.9779 17.8842Z" fill="white"/>
<path d="M8.04828 5.28835C8.56966 5.07318 9.18207 5.16835 9.88552 5.57387L29.5697 16.9408L29.851 17.1021C30.6331 17.5573 31.3076 18.2649 31.8662 19.229C32.4248 20.189 32.7021 21.1242 32.7021 22.0221V44.9338C32.7021 45.8317 32.4248 46.4441 31.8662 46.7628M8.04828 5.28835L7.87034 5.37525C7.31172 5.69387 7.03034 6.30215 7.03034 7.20008V30.1118C7.03034 31.0139 7.31172 31.9449 7.87034 32.909C8.42896 33.8732 9.09932 34.5808 9.88552 35.0318L29.851 46.56C30.6331 47.011 31.3076 47.0814 31.8662 46.7628M8.04828 5.28835L16.1462 1.23728C16.7048 0.918661 17.3752 0.984868 18.1614 1.4359L38.1269 12.9642C38.909 13.4193 39.5835 14.1269 40.1421 15.0911C40.7007 16.0511 40.9779 16.9862 40.9779 17.8842V40.7959C40.9779 41.6938 40.7007 42.3062 40.1421 42.6248L39.9641 42.7117L31.8662 46.7628M21.2938 28.527L25.5724 30.9973C25.9738 31.229 26.3131 31.2704 26.5862 31.1132C26.8593 30.9559 26.9959 30.6497 26.9959 30.1863C26.9959 29.7228 26.8593 29.2553 26.5862 28.7835C26.3131 28.3118 25.9738 27.9559 25.5724 27.7242L24.331 27.0084M21.2938 28.527V33.4387C21.2938 33.9021 21.1572 34.2125 20.8841 34.3656C20.611 34.5228 20.2717 34.4815 19.8662 34.2497C19.4607 34.018 19.1255 33.6663 18.8524 33.1946C18.5752 32.7228 18.4386 32.2553 18.4386 31.7918V26.8801M21.2938 28.527L24.331 27.0084M18.4386 26.8801L21.48 25.3615M18.4386 26.8801L14.16 24.4097C13.7586 24.178 13.4193 23.8263 13.1462 23.3546C12.8731 22.8828 12.7366 22.4153 12.7366 21.9518C12.7366 21.4884 12.8731 21.178 13.1462 21.0208C13.4193 20.8635 13.7586 20.9049 14.16 21.1366L18.4386 23.607M18.4386 23.607V18.6994C18.4386 18.2359 18.5752 17.9256 18.8524 17.7684C19.1255 17.6111 19.4607 17.6525 19.8662 17.8842C20.2717 18.1201 20.611 18.4718 20.8841 18.9435C21.1572 19.4153 21.2938 19.8828 21.2938 20.3463M18.4386 23.607L21.2938 22.1793M21.2938 20.3463V25.2539M21.2938 20.3463V22.1793M21.2938 25.2539L21.48 25.3615M21.2938 25.2539V22.1793M21.48 25.3615L24.331 27.0084" stroke="#27272A" stroke-opacity="0.25" stroke-linecap="round" stroke-linejoin="round"/>
</svg>
