<svg width="40" height="40" viewBox="0 0 40 40" fill="none" xmlns="http://www.w3.org/2000/svg">
<path d="M33.9579 16.9605V23.9605C33.9614 24.0868 33.9227 24.2166 33.842 24.3535C33.5999 24.7675 33.1017 25.0026 32.3508 25.0658L21.7544 25.8026L16.2386 22.6201L15.7473 22.3359V18.0237C15.7473 18.1394 15.7789 18.2517 15.8491 18.3605C15.9473 18.5149 16.0912 18.6482 16.2842 18.7605C16.4772 18.8728 16.7087 18.957 16.9754 19.0131C16.9824 19.0131 16.9859 19.0166 16.993 19.0166C17.2561 19.0693 17.5368 19.0833 17.828 19.0587L32.3508 18.0482C33.1017 17.9851 33.5999 17.75 33.842 17.3359C33.9192 17.2061 33.9579 17.0833 33.9579 16.9605Z" fill="white"/>
<path d="M22.4982 26.6657V33.6762C22.5017 33.9604 22.3192 34.206 21.9578 34.4165C21.5929 34.6271 21.1648 34.7323 20.6736 34.7288C20.1789 34.7288 19.7508 34.6236 19.3859 34.413L1.32976 23.9885C0.961335 23.7779 0.778858 23.5288 0.778858 23.2446V16.2271C0.778858 16.5113 0.961335 16.7604 1.32976 16.9709L15.7473 25.2937L15.828 25.3428L17.042 26.0411L19.3859 27.3955C19.7508 27.606 20.1789 27.7113 20.6736 27.7113C21.1648 27.7148 21.5929 27.6095 21.9578 27.399C22.3157 27.192 22.4982 26.9464 22.4982 26.6657Z" fill="white"/>
<path d="M22.4982 26.6587L22.4982 26.6657C22.4982 26.9464 22.3157 27.192 21.9578 27.399C21.5929 27.6095 21.1648 27.7148 20.6736 27.7113C20.1789 27.7113 19.7508 27.606 19.3859 27.3955L17.042 26.0411L15.828 25.3428L15.7473 25.2937L1.32976 16.9709C0.961335 16.7604 0.778858 16.5113 0.778858 16.2271C0.775349 15.9428 0.957869 15.6938 1.31927 15.4868C1.68418 15.2762 2.11227 15.171 2.60349 15.171C3.09823 15.1745 3.52629 15.2798 3.8912 15.4903L15.7473 22.3359L16.2386 22.6201L21.7544 25.8026L21.9473 25.9149C22.3123 26.1254 22.4982 26.3745 22.4982 26.6587Z" fill="white"/>
<path d="M39.1193 9.61656V9.62358C39.1193 9.90428 38.9369 10.1499 38.579 10.3569L30.8877 14.7955L33.4034 16.2481C33.7719 16.4587 33.9579 16.6973 33.9579 16.9605C33.9579 17.0833 33.9192 17.2061 33.842 17.3359C33.5999 17.75 33.1017 17.9851 32.3508 18.0482L17.828 19.0587C17.5368 19.0833 17.2561 19.0693 16.993 19.0166C16.9859 19.0166 16.9824 19.0131 16.9754 19.0131C16.7087 18.957 16.4772 18.8728 16.2842 18.7605C16.0912 18.6482 15.9473 18.5149 15.8491 18.3605C15.7789 18.2517 15.7473 18.1394 15.7473 18.0237C15.7473 17.971 15.7508 17.9218 15.7649 17.8692L17.5193 9.48323C17.6245 9.05165 18.035 8.76393 18.7543 8.62358C19.4701 8.47972 20.0982 8.56744 20.6351 8.87621L23.1508 10.3288L30.8386 5.88675C31.2035 5.67973 31.6315 5.57446 32.1228 5.57446C32.614 5.57446 33.0456 5.68322 33.4105 5.89375L38.5719 8.8727C38.9369 9.08323 39.1193 9.32884 39.1193 9.61656Z" fill="white"/>
<path d="M39.1193 9.62358L39.1193 16.6341C39.1228 16.9184 38.9404 17.164 38.579 17.3745L33.958 20.0411L33.9579 16.9605C33.9579 16.6973 33.7719 16.4587 33.4034 16.2481L30.8877 14.7955L38.579 10.3569C38.9369 10.1499 39.1193 9.90428 39.1193 9.62358Z" fill="white"/>
<path d="M33.9579 16.9605L33.958 16.8517L33.9579 16.9605Z" fill="white"/>
<path d="M15.7473 18.0237V17.9324V18.0237Z" fill="white"/>
<path d="M33.9579 16.9605V23.9605C33.9614 24.0868 33.9227 24.2166 33.842 24.3535C33.5999 24.7675 33.1017 25.0026 32.3508 25.0658L21.7544 25.8026M33.9579 16.9605C33.9579 17.0833 33.9192 17.2061 33.842 17.3359C33.5999 17.75 33.1017 17.9851 32.3508 18.0482L17.828 19.0587C17.5368 19.0833 17.2561 19.0693 16.993 19.0166C16.9859 19.0166 16.9824 19.0131 16.9754 19.0131C16.7087 18.957 16.4772 18.8728 16.2842 18.7605C16.0912 18.6482 15.9473 18.5149 15.8491 18.3605C15.7789 18.2517 15.7473 18.1394 15.7473 18.0237M33.9579 16.9605C33.9579 16.6973 33.7719 16.4587 33.4034 16.2481L30.8877 14.7955L38.579 10.3569C38.9369 10.1499 39.1193 9.90428 39.1193 9.62358M33.9579 16.9605L33.958 20.0411L38.579 17.3745C38.9404 17.164 39.1228 16.9184 39.1193 16.6341L39.1193 9.62358M33.9579 16.9605L33.958 16.8517M21.7544 25.8026L16.2386 22.6201L15.7473 22.3359M21.7544 25.8026L21.9473 25.9149C22.3123 26.1254 22.4982 26.3745 22.4982 26.6587L22.4982 26.6657M15.7473 22.3359V18.0237M15.7473 22.3359L3.8912 15.4903C3.52629 15.2798 3.09823 15.1745 2.60349 15.171C2.11227 15.171 1.68418 15.2762 1.31927 15.4868C0.957869 15.6938 0.775349 15.9428 0.778858 16.2271M15.7473 18.0237C15.7473 17.971 15.7508 17.9218 15.7649 17.8692L17.5193 9.48323C17.6245 9.05165 18.035 8.76393 18.7543 8.62358C19.4701 8.47972 20.0982 8.56744 20.6351 8.87621L23.1508 10.3288L30.8386 5.88675C31.2035 5.67973 31.6316 5.57446 32.1228 5.57446C32.614 5.57446 33.0456 5.68322 33.4105 5.89375L38.5719 8.8727C38.9369 9.08323 39.1193 9.32884 39.1193 9.61656V9.62358M15.7473 18.0237V17.9324M22.4982 26.6657V33.6762C22.5017 33.9604 22.3192 34.206 21.9578 34.4165C21.5929 34.6271 21.1648 34.7323 20.6736 34.7288C20.1789 34.7288 19.7508 34.6235 19.3859 34.413L1.32976 23.9885C0.961335 23.7779 0.778858 23.5288 0.778858 23.2446V16.2271M22.4982 26.6657C22.4982 26.9464 22.3157 27.192 21.9578 27.399C21.5929 27.6095 21.1648 27.7148 20.6736 27.7113C20.1789 27.7113 19.7508 27.606 19.3859 27.3955L17.042 26.0411L15.828 25.3428L15.7473 25.2937L1.32976 16.9709C0.961335 16.7604 0.778858 16.5113 0.778858 16.2271" stroke="#27272A" stroke-opacity="0.25" stroke-linecap="round" stroke-linejoin="round"/>
</svg>
