<svg width="40" height="40" viewBox="0 0 40 40" fill="none" xmlns="http://www.w3.org/2000/svg">
<g filter="url(#filter0_di_14311_2739)">
<path d="M6.5 5.6C6.5 3.61178 8.11177 2 10.1 2H23.7769C24.2409 2 24.6871 2.17924 25.0222 2.50029L32.9453 10.0918C33.2996 10.4313 33.5 10.9007 33.5 11.3915V34.4C33.5 36.3882 31.8882 38 29.9 38H10.1C8.11177 38 6.5 36.3882 6.5 34.4V5.6Z" fill="#3EB5D7"/>
<path d="M10.0996 2.25H23.7773C24.1767 2.25011 24.5612 2.4043 24.8496 2.68066L32.7725 10.2725C33.0775 10.5648 33.25 10.969 33.25 11.3916V34.4004C33.2498 36.2502 31.7502 37.7498 29.9004 37.75H10.0996C8.24976 37.7498 6.75021 36.2502 6.75 34.4004V5.59961C6.75021 3.74977 8.24976 2.25021 10.0996 2.25Z" stroke="#27272A" stroke-opacity="0.15" stroke-width="0.5"/>
</g>
<path d="M24.5 3.80078L31.7 11.0008H24.5V3.80078Z" fill="white" fill-opacity="0.5"/>
<path fill-rule="evenodd" clip-rule="evenodd" d="M18.3125 25.9641C18.2588 25.8347 18.0923 25.7991 17.9904 25.8953L14.7547 28.9507C14.6231 29.0749 14.711 29.2961 14.892 29.2961H25.2607C25.4123 29.2961 25.5088 29.134 25.4366 29.0008L23.1209 24.7299C23.0582 24.6143 22.903 24.5896 22.8075 24.6801L19.1982 28.1008L18.3125 25.9641ZM27.1998 30.0977C27.1998 30.5383 27.0428 30.9156 26.7287 31.2297C26.4146 31.5438 26.0373 31.7008 25.5967 31.7008H14.3889C13.9576 31.7008 13.585 31.5438 13.2709 31.2297C12.9568 30.9156 12.7998 30.5383 12.7998 30.0977V18.8898C12.7998 18.4586 12.9568 18.0859 13.2709 17.7719C13.585 17.4578 13.9576 17.3008 14.3889 17.3008H25.5967C26.0373 17.3008 26.4146 17.4555 26.7287 17.7648C27.0428 18.0742 27.1998 18.4492 27.1998 18.8898V30.0977Z" fill="white"/>
<defs>
<filter id="filter0_di_14311_2739" x="5.5" y="2" width="29" height="38" filterUnits="userSpaceOnUse" color-interpolation-filters="sRGB">
<feFlood flood-opacity="0" result="BackgroundImageFix"/>
<feColorMatrix in="SourceAlpha" type="matrix" values="0 0 0 0 0 0 0 0 0 0 0 0 0 0 0 0 0 0 127 0" result="hardAlpha"/>
<feOffset dy="1"/>
<feGaussianBlur stdDeviation="0.5"/>
<feComposite in2="hardAlpha" operator="out"/>
<feColorMatrix type="matrix" values="0 0 0 0 0 0 0 0 0 0 0 0 0 0 0 0 0 0 0.06 0"/>
<feBlend mode="normal" in2="BackgroundImageFix" result="effect1_dropShadow_14311_2739"/>
<feBlend mode="normal" in="SourceGraphic" in2="effect1_dropShadow_14311_2739" result="shape"/>
<feColorMatrix in="SourceAlpha" type="matrix" values="0 0 0 0 0 0 0 0 0 0 0 0 0 0 0 0 0 0 127 0" result="hardAlpha"/>
<feOffset dy="-0.5"/>
<feComposite in2="hardAlpha" operator="arithmetic" k2="-1" k3="1"/>
<feColorMatrix type="matrix" values="0 0 0 0 0 0 0 0 0 0 0 0 0 0 0 0 0 0 0.1 0"/>
<feBlend mode="normal" in2="shape" result="effect2_innerShadow_14311_2739"/>
</filter>
</defs>
</svg>
