<svg width="40" height="40" viewBox="0 0 40 40" fill="none" xmlns="http://www.w3.org/2000/svg">
<g filter="url(#filter0_di_14311_2889)">
<path d="M6.5 5.6C6.5 3.61178 8.11177 2 10.1 2H23.7769C24.2409 2 24.6871 2.17924 25.0222 2.5003L32.9453 10.0918C33.2996 10.4313 33.5 10.9007 33.5 11.3915V34.4C33.5 36.3882 31.8882 38 29.9 38H10.1C8.11177 38 6.5 36.3882 6.5 34.4V5.6Z" fill="white"/>
<path d="M10.0996 2.25H23.7773C24.1767 2.25011 24.5612 2.4043 24.8496 2.68066L32.7725 10.2725C33.0775 10.5648 33.25 10.969 33.25 11.3916V34.4004C33.2498 36.2502 31.7502 37.7498 29.9004 37.75H10.0996C8.24976 37.7498 6.75021 36.2502 6.75 34.4004V5.59961C6.75021 3.74977 8.24976 2.25021 10.0996 2.25Z" stroke="#27272A" stroke-opacity="0.15" stroke-width="0.5"/>
</g>
<path d="M24.2427 23.3575L23.2999 22.4147L24.2427 21.4719C25.5444 20.1702 25.5444 18.0596 24.2427 16.7579C22.941 15.4561 20.8304 15.4561 19.5286 16.7579L18.5858 17.7007L17.643 16.7579L18.5858 15.8151C20.4083 13.9926 23.363 13.9926 25.1855 15.8151C27.008 17.6375 27.008 20.5923 25.1855 22.4147L24.2427 23.3575ZM22.357 25.2432L21.4142 26.186C19.5918 28.0084 16.637 28.0084 14.8146 26.186C12.9921 24.3635 12.9921 21.4087 14.8146 19.5863L15.7574 18.6435L16.7002 19.5863L15.7574 20.5291C14.4556 21.8309 14.4556 23.9414 15.7574 25.2432C17.0591 26.5449 19.1697 26.5449 20.4714 25.2432L21.4142 24.3003L22.357 25.2432ZM21.8856 18.1721L22.8285 19.1149L18.1144 23.8289L17.1716 22.8861L21.8856 18.1721Z" fill="#6F6F77"/>
<defs>
<filter id="filter0_di_14311_2889" x="5.5" y="2" width="29" height="38" filterUnits="userSpaceOnUse" color-interpolation-filters="sRGB">
<feFlood flood-opacity="0" result="BackgroundImageFix"/>
<feColorMatrix in="SourceAlpha" type="matrix" values="0 0 0 0 0 0 0 0 0 0 0 0 0 0 0 0 0 0 127 0" result="hardAlpha"/>
<feOffset dy="1"/>
<feGaussianBlur stdDeviation="0.5"/>
<feComposite in2="hardAlpha" operator="out"/>
<feColorMatrix type="matrix" values="0 0 0 0 0 0 0 0 0 0 0 0 0 0 0 0 0 0 0.06 0"/>
<feBlend mode="normal" in2="BackgroundImageFix" result="effect1_dropShadow_14311_2889"/>
<feBlend mode="normal" in="SourceGraphic" in2="effect1_dropShadow_14311_2889" result="shape"/>
<feColorMatrix in="SourceAlpha" type="matrix" values="0 0 0 0 0 0 0 0 0 0 0 0 0 0 0 0 0 0 127 0" result="hardAlpha"/>
<feOffset dy="-0.5"/>
<feComposite in2="hardAlpha" operator="arithmetic" k2="-1" k3="1"/>
<feColorMatrix type="matrix" values="0 0 0 0 0 0 0 0 0 0 0 0 0 0 0 0 0 0 0.1 0"/>
<feBlend mode="normal" in2="shape" result="effect2_innerShadow_14311_2889"/>
</filter>
</defs>
</svg>
