<svg width="40" height="40" viewBox="0 0 40 40" fill="none" xmlns="http://www.w3.org/2000/svg">
<g filter="url(#filter0_di_14281_2855)">
<path d="M6.5 5.6C6.5 3.61178 8.11177 2 10.1 2H23.7769C24.2409 2 24.6871 2.17924 25.0222 2.50029L32.9453 10.0918C33.2996 10.4313 33.5 10.9007 33.5 11.3915V34.4C33.5 36.3882 31.8882 38 29.9 38H10.1C8.11177 38 6.5 36.3882 6.5 34.4V5.6Z" fill="#A14EFD"/>
<path d="M10.0996 2.25H23.7773C24.1767 2.25011 24.5612 2.4043 24.8496 2.68066L32.7725 10.2725C33.0775 10.5648 33.25 10.969 33.25 11.3916V34.4004C33.2498 36.2502 31.7502 37.7498 29.9004 37.75H10.0996C8.24976 37.7498 6.75021 36.2502 6.75 34.4004V5.59961C6.75021 3.74977 8.24976 2.25021 10.0996 2.25Z" stroke="#27272A" stroke-opacity="0.15" stroke-width="0.5"/>
</g>
<path d="M24.5 3.80078L31.7 11.0008H24.5V3.80078Z" fill="white" fill-opacity="0.5"/>
<path fill-rule="evenodd" clip-rule="evenodd" d="M23.9936 23.6V20.8016C23.9936 20.5859 23.9163 20.3984 23.7616 20.2391C23.6069 20.0797 23.417 20 23.192 20H13.6014C13.3764 20 13.1866 20.0797 13.0319 20.2391C12.8772 20.3984 12.7998 20.5859 12.7998 20.8016V28.8031C12.7998 29.0281 12.8772 29.218 13.0319 29.3727C13.1866 29.5273 13.3764 29.6047 13.6014 29.6047H23.192C23.417 29.6047 23.6069 29.5273 23.7616 29.3727C23.9163 29.218 23.9936 29.0281 23.9936 28.8031V26.0047L26.3463 28.3574C26.6613 28.6724 27.1998 28.4493 27.1998 28.0038V21.6112C27.1998 21.1663 26.6624 20.9429 26.3471 21.2568L23.9936 23.6Z" fill="white"/>
<defs>
<filter id="filter0_di_14281_2855" x="5.5" y="2" width="29" height="38" filterUnits="userSpaceOnUse" color-interpolation-filters="sRGB">
<feFlood flood-opacity="0" result="BackgroundImageFix"/>
<feColorMatrix in="SourceAlpha" type="matrix" values="0 0 0 0 0 0 0 0 0 0 0 0 0 0 0 0 0 0 127 0" result="hardAlpha"/>
<feOffset dy="1"/>
<feGaussianBlur stdDeviation="0.5"/>
<feComposite in2="hardAlpha" operator="out"/>
<feColorMatrix type="matrix" values="0 0 0 0 0 0 0 0 0 0 0 0 0 0 0 0 0 0 0.06 0"/>
<feBlend mode="normal" in2="BackgroundImageFix" result="effect1_dropShadow_14281_2855"/>
<feBlend mode="normal" in="SourceGraphic" in2="effect1_dropShadow_14281_2855" result="shape"/>
<feColorMatrix in="SourceAlpha" type="matrix" values="0 0 0 0 0 0 0 0 0 0 0 0 0 0 0 0 0 0 127 0" result="hardAlpha"/>
<feOffset dy="-0.5"/>
<feComposite in2="hardAlpha" operator="arithmetic" k2="-1" k3="1"/>
<feColorMatrix type="matrix" values="0 0 0 0 0 0 0 0 0 0 0 0 0 0 0 0 0 0 0.1 0"/>
<feBlend mode="normal" in2="shape" result="effect2_innerShadow_14281_2855"/>
</filter>
</defs>
</svg>
