<svg width="40" height="40" viewBox="0 0 40 40" fill="none" xmlns="http://www.w3.org/2000/svg">
<g filter="url(#filter0_di_14281_2853)">
<path d="M6.5 5.6C6.5 3.61178 8.11177 2 10.1 2H23.7769C24.2409 2 24.6871 2.17924 25.0222 2.50029L32.9453 10.0918C33.2996 10.4313 33.5 10.9007 33.5 11.3915V34.4C33.5 36.3882 31.8882 38 29.9 38H10.1C8.11177 38 6.5 36.3882 6.5 34.4V5.6Z" fill="#4FC660"/>
<path d="M10.0996 2.25H23.7773C24.1767 2.25011 24.5612 2.4043 24.8496 2.68066L32.7725 10.2725C33.0775 10.5648 33.25 10.969 33.25 11.3916V34.4004C33.2498 36.2502 31.7502 37.7498 29.9004 37.75H10.0996C8.24976 37.7498 6.75021 36.2502 6.75 34.4004V5.59961C6.75021 3.74977 8.24976 2.25021 10.0996 2.25Z" stroke="#27272A" stroke-opacity="0.15" stroke-width="0.5"/>
</g>
<path d="M24.5 3.80078L31.7 11.0008H24.5V3.80078Z" fill="white" fill-opacity="0.5"/>
<path fill-rule="evenodd" clip-rule="evenodd" d="M16.7936 17.3008C16.3529 17.3008 15.9756 17.4578 15.6615 17.7719C15.3475 18.0859 15.1904 18.4586 15.1904 18.8898V22.0961C15.1904 22.5367 15.0334 22.9141 14.7193 23.2281C14.4053 23.5422 14.0326 23.6992 13.6014 23.6992H12.7998V25.3023H13.6014C14.0326 25.3023 14.4053 25.457 14.7193 25.7664C15.0334 26.0758 15.1904 26.4508 15.1904 26.8914V30.0977C15.1904 30.5383 15.3475 30.9156 15.6615 31.2297C15.9756 31.5438 16.3529 31.7008 16.7936 31.7008H18.3967V30.0977H16.7936V26.0898C16.7936 25.6586 16.6365 25.2859 16.3225 24.9719C16.0084 24.6578 15.6311 24.5008 15.1904 24.5008C15.6311 24.5008 16.0084 24.3438 16.3225 24.0297C16.6365 23.7156 16.7936 23.3383 16.7936 22.8977V18.8898H18.3967V17.3008H16.7936ZM23.192 17.3008C23.6326 17.3008 24.01 17.4578 24.324 17.7719C24.6381 18.0859 24.7951 18.4586 24.7951 18.8898V22.0961C24.7951 22.5367 24.9521 22.9141 25.2662 23.2281C25.5803 23.5422 25.9576 23.6992 26.3982 23.6992H27.1998V25.3023H26.3982C25.9576 25.3023 25.5803 25.457 25.2662 25.7664C24.9521 26.0758 24.7951 26.4508 24.7951 26.8914V30.0977C24.7951 30.5383 24.6381 30.9156 24.324 31.2297C24.01 31.5438 23.6326 31.7008 23.192 31.7008H21.5889V30.0977H23.192V26.0898C23.192 25.6586 23.349 25.2859 23.6631 24.9719C23.9771 24.6578 24.3545 24.5008 24.7951 24.5008C24.3545 24.5008 23.9771 24.3438 23.6631 24.0297C23.349 23.7156 23.192 23.3383 23.192 22.8977V18.8898H21.5889V17.3008H23.192Z" fill="white"/>
<defs>
<filter id="filter0_di_14281_2853" x="5.5" y="2" width="29" height="38" filterUnits="userSpaceOnUse" color-interpolation-filters="sRGB">
<feFlood flood-opacity="0" result="BackgroundImageFix"/>
<feColorMatrix in="SourceAlpha" type="matrix" values="0 0 0 0 0 0 0 0 0 0 0 0 0 0 0 0 0 0 127 0" result="hardAlpha"/>
<feOffset dy="1"/>
<feGaussianBlur stdDeviation="0.5"/>
<feComposite in2="hardAlpha" operator="out"/>
<feColorMatrix type="matrix" values="0 0 0 0 0 0 0 0 0 0 0 0 0 0 0 0 0 0 0.06 0"/>
<feBlend mode="normal" in2="BackgroundImageFix" result="effect1_dropShadow_14281_2853"/>
<feBlend mode="normal" in="SourceGraphic" in2="effect1_dropShadow_14281_2853" result="shape"/>
<feColorMatrix in="SourceAlpha" type="matrix" values="0 0 0 0 0 0 0 0 0 0 0 0 0 0 0 0 0 0 127 0" result="hardAlpha"/>
<feOffset dy="-0.5"/>
<feComposite in2="hardAlpha" operator="arithmetic" k2="-1" k3="1"/>
<feColorMatrix type="matrix" values="0 0 0 0 0 0 0 0 0 0 0 0 0 0 0 0 0 0 0.1 0"/>
<feBlend mode="normal" in2="shape" result="effect2_innerShadow_14281_2853"/>
</filter>
</defs>
</svg>
