<svg width="40" height="40" viewBox="0 0 40 40" fill="none" xmlns="http://www.w3.org/2000/svg">
<g filter="url(#filter0_di_14281_2852)">
<path d="M6.5 5.6C6.5 3.61178 8.11177 2 10.1 2H23.7769C24.2409 2 24.6871 2.17924 25.0222 2.5003L32.9453 10.0918C33.2996 10.4313 33.5 10.9007 33.5 11.3915V34.4C33.5 36.3882 31.8882 38 29.9 38H10.1C8.11177 38 6.5 36.3882 6.5 34.4V5.6Z" fill="white"/>
<path d="M10.0996 2.25H23.7773C24.1767 2.25011 24.5612 2.4043 24.8496 2.68066L32.7725 10.2725C33.0775 10.5648 33.25 10.969 33.25 11.3916V34.4004C33.2498 36.2502 31.7502 37.7498 29.9004 37.75H10.0996C8.24976 37.7498 6.75021 36.2502 6.75 34.4004V5.59961C6.75021 3.74977 8.24976 2.25021 10.0996 2.25Z" stroke="#27272A" stroke-opacity="0.15" stroke-width="0.5"/>
</g>
<path d="M0 21C0 19.8954 0.895431 19 2 19H24C25.1046 19 26 19.8954 26 21V28C26 29.1046 25.1046 30 24 30H2C0.89543 30 0 29.1046 0 28V21Z" fill="#222225"/>
<path d="M5.1278 28H2.90976V21.4545H5.17254C5.8224 21.4545 6.38064 21.5856 6.84726 21.8477C7.31601 22.1076 7.67609 22.4815 7.92751 22.9695C8.17893 23.4574 8.30464 24.0412 8.30464 24.7209C8.30464 25.4027 8.17787 25.9886 7.92432 26.4787C7.6729 26.9687 7.30961 27.3448 6.83447 27.6069C6.36146 27.869 5.79257 28 5.1278 28ZM4.09548 26.9741H5.07027C5.52623 26.9741 5.90656 26.891 6.21125 26.7248C6.51594 26.5565 6.74498 26.3061 6.89839 25.9737C7.0518 25.6392 7.12851 25.2216 7.12851 24.7209C7.12851 24.2202 7.0518 23.8047 6.89839 23.4744C6.74498 23.142 6.51807 22.8938 6.21764 22.7298C5.91934 22.5636 5.54861 22.4805 5.10542 22.4805H4.09548V26.9741ZM9.43124 21.4545H10.8822L12.8254 26.1974H12.9021L14.8453 21.4545H16.2963V28H15.1585V23.5032H15.0978L13.2888 27.9808H12.4387L10.6297 23.4936H10.569V28H9.43124V21.4545ZM21.9724 23.5447C21.9192 23.3722 21.8457 23.2177 21.7519 23.0813C21.6603 22.9428 21.5495 22.8246 21.4195 22.7266C21.2917 22.6286 21.1447 22.555 20.9785 22.506C20.8123 22.4549 20.6312 22.4293 20.4351 22.4293C20.0836 22.4293 19.7704 22.5178 19.4955 22.6946C19.2207 22.8714 19.0044 23.1314 18.8467 23.4744C18.6912 23.8153 18.6134 24.2308 18.6134 24.7209C18.6134 25.2152 18.6912 25.6339 18.8467 25.9769C19.0023 26.32 19.2185 26.581 19.4955 26.7599C19.7725 26.9368 20.0942 27.0252 20.4607 27.0252C20.7931 27.0252 21.0807 26.9613 21.3236 26.8335C21.5687 26.7056 21.7572 26.5245 21.8893 26.2901C22.0214 26.0536 22.0875 25.7766 22.0875 25.4592L22.356 25.5007H20.579V24.5739H23.2349V25.3601C23.2349 25.9205 23.1155 26.4052 22.8769 26.8143C22.6383 27.2234 22.3101 27.5387 21.8925 27.7603C21.4749 27.9798 20.9955 28.0895 20.4543 28.0895C19.8513 28.0895 19.3219 27.9542 18.8659 27.6836C18.4121 27.4109 18.0573 27.0241 17.8016 26.5234C17.5481 26.0206 17.4213 25.424 17.4213 24.7337C17.4213 24.2053 17.4959 23.7333 17.645 23.3178C17.7963 22.9023 18.0072 22.5497 18.2778 22.2599C18.5484 21.968 18.8659 21.7464 19.2302 21.5952C19.5946 21.4418 19.9909 21.3651 20.4192 21.3651C20.7814 21.3651 21.1191 21.4183 21.4323 21.5249C21.7455 21.6293 22.0236 21.7784 22.2665 21.9723C22.5115 22.1662 22.7128 22.3963 22.8705 22.6626C23.0282 22.929 23.1315 23.223 23.1805 23.5447H21.9724Z" fill="white"/>
<defs>
<filter id="filter0_di_14281_2852" x="5.5" y="2" width="29" height="38" filterUnits="userSpaceOnUse" color-interpolation-filters="sRGB">
<feFlood flood-opacity="0" result="BackgroundImageFix"/>
<feColorMatrix in="SourceAlpha" type="matrix" values="0 0 0 0 0 0 0 0 0 0 0 0 0 0 0 0 0 0 127 0" result="hardAlpha"/>
<feOffset dy="1"/>
<feGaussianBlur stdDeviation="0.5"/>
<feComposite in2="hardAlpha" operator="out"/>
<feColorMatrix type="matrix" values="0 0 0 0 0 0 0 0 0 0 0 0 0 0 0 0 0 0 0.06 0"/>
<feBlend mode="normal" in2="BackgroundImageFix" result="effect1_dropShadow_14281_2852"/>
<feBlend mode="normal" in="SourceGraphic" in2="effect1_dropShadow_14281_2852" result="shape"/>
<feColorMatrix in="SourceAlpha" type="matrix" values="0 0 0 0 0 0 0 0 0 0 0 0 0 0 0 0 0 0 127 0" result="hardAlpha"/>
<feOffset dy="-0.5"/>
<feComposite in2="hardAlpha" operator="arithmetic" k2="-1" k3="1"/>
<feColorMatrix type="matrix" values="0 0 0 0 0 0 0 0 0 0 0 0 0 0 0 0 0 0 0.1 0"/>
<feBlend mode="normal" in2="shape" result="effect2_innerShadow_14281_2852"/>
</filter>
</defs>
</svg>
