<svg width="40" height="40" viewBox="0 0 40 40" fill="none" xmlns="http://www.w3.org/2000/svg">
<g filter="url(#filter0_di_14281_2854)">
<path d="M6.5 5.6C6.5 3.61178 8.11177 2 10.1 2H23.7769C24.2409 2 24.6871 2.17924 25.0222 2.50029L32.9453 10.0918C33.2996 10.4313 33.5 10.9007 33.5 11.3915V34.4C33.5 36.3882 31.8882 38 29.9 38H10.1C8.11177 38 6.5 36.3882 6.5 34.4V5.6Z" fill="#E74341"/>
<path d="M10.0996 2.25H23.7773C24.1767 2.25011 24.5612 2.4043 24.8496 2.68066L32.7725 10.2725C33.0775 10.5648 33.25 10.969 33.25 11.3916V34.4004C33.2498 36.2502 31.7502 37.7498 29.9004 37.75H10.0996C8.24976 37.7498 6.75021 36.2502 6.75 34.4004V5.59961C6.75021 3.74977 8.24976 2.25021 10.0996 2.25Z" stroke="#27272A" stroke-opacity="0.15" stroke-width="0.5"/>
</g>
<path d="M24.5 3.80078L31.7 11.0008H24.5V3.80078Z" fill="white" fill-opacity="0.5"/>
<path fill-rule="evenodd" clip-rule="evenodd" d="M19.3427 23.277C19.574 23.7937 19.8393 24.2628 20.1386 24.6844C20.4379 25.1059 20.7644 25.4662 21.1182 25.7654L21.5876 26.1325C21.0842 26.2277 20.4957 26.3603 19.8223 26.5302C19.1488 26.7002 18.4447 26.928 17.71 27.2135L17.5876 27.2543L18.159 26.0509C18.4175 25.5478 18.6454 25.0651 18.8427 24.6028C19.0399 24.1404 19.2066 23.6985 19.3427 23.277ZM26.8529 27.6826C26.9617 27.5875 27.0433 27.4753 27.0978 27.3461C27.1522 27.2169 27.1794 27.0776 27.1794 26.928C27.2066 26.8056 27.2066 26.69 27.1794 26.5812C27.1522 26.4725 27.1046 26.3773 27.0365 26.2957C26.8733 26.0237 26.574 25.8198 26.1386 25.6838C25.7032 25.5478 25.125 25.4798 24.4039 25.4798L22.8937 25.5614L21.8937 24.8883C21.5263 24.5892 21.1828 24.1846 20.8631 23.6747C20.5433 23.1648 20.2678 22.5835 20.0365 21.9308L20.0774 21.7676C20.2678 20.9926 20.4073 20.1971 20.4957 19.3812C20.5842 18.5654 20.4379 17.9671 20.0569 17.5863C19.9617 17.4911 19.8529 17.4198 19.7304 17.3722C19.608 17.3246 19.4787 17.3008 19.3427 17.3008H19.0774C18.8597 17.3008 18.6624 17.396 18.4855 17.5863C18.3086 17.7767 18.1998 17.9807 18.159 18.1982C17.9413 18.9733 17.8733 19.6226 17.9549 20.1461C18.0365 20.6696 18.1862 21.2849 18.4039 21.992V22.0124C18.2678 22.5155 18.0978 23.056 17.8937 23.6339C17.6896 24.2118 17.4447 24.7999 17.159 25.3982L16.0365 27.4991L14.9957 28.0702C14.3018 28.5053 13.7814 28.9472 13.4345 29.396C13.0876 29.8447 12.8869 30.2186 12.8325 30.5178C12.8052 30.6266 12.795 30.7319 12.8018 30.8339C12.8086 30.9359 12.8325 31.0413 12.8733 31.1501L12.9141 31.2113L13.4651 31.558L13.9753 31.7008C14.4515 31.7008 14.9651 31.4152 15.5161 30.8441C16.0672 30.273 16.7032 29.3688 17.4243 28.1314L17.6488 28.0498C18.2474 27.8594 18.9277 27.6962 19.6896 27.5603C20.4515 27.4243 21.3291 27.2951 22.3223 27.1727C22.9209 27.4719 23.5399 27.6928 24.1794 27.8356C24.8189 27.9784 25.3631 28.0498 25.812 28.0498C26.0569 28.0498 26.2678 28.0192 26.4447 27.958C26.6216 27.8968 26.7576 27.805 26.8529 27.6826ZM26.3835 26.8668L26.4855 26.9892C26.4855 27.0572 26.4753 27.0979 26.4549 27.1115C26.4345 27.1251 26.4107 27.1387 26.3835 27.1523H26.3427L26.1182 27.1727C25.8461 27.1727 25.5161 27.1183 25.1284 27.0096C24.7406 26.9008 24.3359 26.758 23.9141 26.5812C23.9685 26.5268 24.0127 26.4929 24.0467 26.4793C24.0808 26.4657 24.125 26.4589 24.1794 26.4589C24.9957 26.4589 25.5535 26.5132 25.8529 26.622C26.1522 26.7308 26.3291 26.8124 26.3835 26.8668ZM15.7304 28.5597C15.3631 29.2532 15.0093 29.7903 14.6692 30.171C14.3291 30.5518 14.0297 30.7897 13.7712 30.8849C13.7984 30.6674 13.9379 30.3784 14.1896 30.0181C14.4413 29.6577 14.7712 29.294 15.1794 28.9268L15.7304 28.5597ZM19.2406 20.5438C19.1046 20.0271 19.0331 19.5614 19.0263 19.1467C19.0195 18.7319 19.0638 18.4022 19.159 18.1574L19.2406 18.0351L19.4243 18.0759C19.5195 18.2254 19.574 18.3988 19.5876 18.596C19.6012 18.7931 19.5808 19.0481 19.5263 19.3608L19.4855 19.5444L19.3018 20.503L19.2406 20.5438Z" fill="white"/>
<defs>
<filter id="filter0_di_14281_2854" x="5.5" y="2" width="29" height="38" filterUnits="userSpaceOnUse" color-interpolation-filters="sRGB">
<feFlood flood-opacity="0" result="BackgroundImageFix"/>
<feColorMatrix in="SourceAlpha" type="matrix" values="0 0 0 0 0 0 0 0 0 0 0 0 0 0 0 0 0 0 127 0" result="hardAlpha"/>
<feOffset dy="1"/>
<feGaussianBlur stdDeviation="0.5"/>
<feComposite in2="hardAlpha" operator="out"/>
<feColorMatrix type="matrix" values="0 0 0 0 0 0 0 0 0 0 0 0 0 0 0 0 0 0 0.06 0"/>
<feBlend mode="normal" in2="BackgroundImageFix" result="effect1_dropShadow_14281_2854"/>
<feBlend mode="normal" in="SourceGraphic" in2="effect1_dropShadow_14281_2854" result="shape"/>
<feColorMatrix in="SourceAlpha" type="matrix" values="0 0 0 0 0 0 0 0 0 0 0 0 0 0 0 0 0 0 127 0" result="hardAlpha"/>
<feOffset dy="-0.5"/>
<feComposite in2="hardAlpha" operator="arithmetic" k2="-1" k3="1"/>
<feColorMatrix type="matrix" values="0 0 0 0 0 0 0 0 0 0 0 0 0 0 0 0 0 0 0.1 0"/>
<feBlend mode="normal" in2="shape" result="effect2_innerShadow_14281_2854"/>
</filter>
</defs>
</svg>
