<svg width="114" height="26" viewBox="0 0 114 26" fill="none" xmlns="http://www.w3.org/2000/svg">
<path d="M7.90837 4.74358L7.38995 6.34983L5.96123 5.45269C4.21679 4.35769 2.09274 6.14091 2.86791 8.04949L3.50304 9.61273L1.8323 9.84377C-0.208203 10.1264 -0.689766 12.8584 1.13084 13.8219L2.62222 14.6109L1.49079 15.862C0.109974 17.3896 1.4957 19.7922 3.50918 19.3596L5.15903 19.0057L5.09638 20.6918C5.02021 22.7503 7.62582 23.6991 8.88993 22.0732L9.92554 20.741L10.9611 22.0732C12.2253 23.6991 14.8321 22.7503 14.7547 20.6918L14.692 19.0057L16.3419 19.3596C18.3554 19.7922 19.7423 17.3896 18.3603 15.862L17.2289 14.6109L18.7202 13.8219C20.5408 12.8584 20.0593 10.1264 18.0188 9.84377L16.348 9.61273L16.9832 8.04949C17.7583 6.14091 15.6343 4.35769 13.8898 5.45269L12.4611 6.34983L11.9427 4.74358C11.31 2.78339 8.53735 2.78339 7.90468 4.74358H7.90837Z" fill="#EB3E5B"/>
<path d="M27.9934 1.23428C27.7778 1.23428 27.6211 1.29307 27.5231 1.41065C27.4251 1.52823 27.3761 1.6948 27.3761 1.91036L27.3173 15.7846L24.1427 15.6377C24.1427 11.3264 24.1035 8.00485 24.0251 5.67287C23.9467 3.3409 23.8095 1.97895 23.6136 1.58702C23.5156 1.39105 23.349 1.24408 23.1139 1.1461C22.8983 1.04812 22.5946 1.00892 22.2026 1.02852V0.41123L27.3761 0.381836L28.4637 0.41123C30.8153 0.430828 32.6083 0.959932 33.8429 1.99854C35.0971 3.03715 35.7242 4.62446 35.7242 6.76048C35.7242 7.79909 35.5772 8.75931 35.2833 9.64115C34.9893 10.5034 34.568 11.2579 34.0193 11.9045C33.4706 12.5316 32.8043 13.0215 32.0205 13.3743C31.2366 13.727 30.3548 13.9132 29.3749 13.9328L26.847 13.9622L26.9058 12.8746H28.5519C29.2182 12.8746 29.7963 12.7178 30.2862 12.4042C30.7761 12.0711 31.1778 11.6302 31.4913 11.0815C31.8049 10.5328 32.04 9.8959 32.1968 9.17084C32.3536 8.42617 32.4222 7.63252 32.4026 6.78987C32.4026 5.84924 32.3242 5.03599 32.1674 4.35012C32.0302 3.64464 31.7951 3.05675 31.462 2.58644C31.1484 2.11612 30.7271 1.77318 30.198 1.55762C29.6689 1.32246 29.0222 1.21468 28.2579 1.23428H27.9934ZM24.1427 15.6377L27.3173 15.7846C27.3173 17.9206 27.3173 19.7137 27.3173 21.1639C27.3173 22.614 27.4741 23.5938 27.7876 24.1033C27.8464 24.2405 27.9738 24.3483 28.1698 24.4267C28.3657 24.4855 28.6205 24.5246 28.934 24.5442V25.1615H22.4378V24.5736C22.7709 24.554 23.0453 24.505 23.2608 24.4267C23.4764 24.3287 23.6136 24.2209 23.6724 24.1033C23.8095 23.8682 23.9075 23.4958 23.9663 22.9863C24.0447 22.4768 24.0937 21.8595 24.1133 21.1345C24.1329 20.4094 24.1427 19.5863 24.1427 18.6653C24.1427 17.7247 24.1427 16.7155 24.1427 15.6377Z" fill="white"/>
<path d="M43.1544 25.5143L43.2132 20.3996C43.2719 19.5569 43.2915 18.6947 43.2719 17.8129C43.2523 16.931 43.2425 16.059 43.2425 15.1967C43.223 14.4717 43.2132 13.6878 43.2132 12.8452C43.2328 12.0025 43.1838 11.2089 43.0662 10.4642C42.9682 9.71954 42.7722 9.11205 42.4783 8.64173C42.2039 8.15182 41.7728 7.91667 41.1849 7.93626C40.4599 7.93626 39.9112 8.08323 39.5388 8.37718C39.1861 8.65153 38.9313 9.02386 38.7746 9.49418C38.6178 9.96449 38.5296 10.5034 38.51 11.1109C38.4904 11.7184 38.4708 12.3455 38.4512 12.9921C38.2749 13.4821 38.0103 13.7858 37.6576 13.9034C37.3048 14.021 36.9325 14.0797 36.5406 14.0797C36.1682 14.0993 35.8645 13.9916 35.6293 13.7564C35.3942 13.5016 35.2766 13.2469 35.2766 12.9921C35.2766 12.0515 35.4432 11.2089 35.7763 10.4642C36.1094 9.69994 36.5406 9.05326 37.0697 8.52415C37.6184 7.99505 38.2455 7.59332 38.9509 7.31897C39.676 7.02503 40.4305 6.87805 41.2143 6.87805C41.8806 6.87805 42.5175 6.97604 43.125 7.172C43.7325 7.36796 44.2616 7.68151 44.7123 8.11263C45.163 8.52416 45.5255 9.04346 45.7999 9.67055C46.0938 10.2976 46.2604 11.0227 46.2996 11.8458C46.3192 12.1985 46.329 12.5414 46.329 12.8746C46.3486 13.2077 46.3584 13.5408 46.3584 13.874C46.3584 14.3051 46.3486 15.0106 46.329 15.9904C46.3094 16.9506 46.3094 17.95 46.329 18.9887C46.3486 20.0273 46.3878 20.9973 46.4466 21.8987C46.525 22.8002 46.6425 23.3783 46.7993 23.633C46.8581 23.7506 46.9267 23.8192 47.0051 23.8388C47.103 23.8584 47.1912 23.8682 47.2696 23.8682C47.4264 23.8682 47.5832 23.8584 47.7399 23.8388C47.8967 23.7996 48.0437 23.78 48.1809 23.78C48.2396 23.78 48.2886 23.7898 48.3278 23.8094C48.367 23.8094 48.4062 23.8192 48.4454 23.8388L48.269 24.5442C47.9359 24.5834 47.544 24.6618 47.0932 24.7794C46.6425 24.8774 46.182 24.9852 45.7117 25.1027C45.2414 25.2007 44.7809 25.2889 44.3302 25.3673C43.899 25.4653 43.5071 25.5143 43.1544 25.5143ZM39.2743 25.5143C38.6864 25.5731 38.1377 25.5241 37.6282 25.3673C37.1383 25.2301 36.7071 25.0048 36.3348 24.6912C35.9821 24.3581 35.7077 23.9367 35.5118 23.4272C35.3158 22.9177 35.2276 22.32 35.2472 21.6342C35.2472 20.8699 35.404 20.2232 35.7175 19.6941C36.0311 19.1454 36.4426 18.6653 36.9521 18.2538C37.4616 17.8227 38.0201 17.4405 38.6276 17.1074C39.2547 16.7743 39.872 16.4313 40.4795 16.0786C41.1065 15.7258 41.6846 15.3437 42.2137 14.9322C42.7428 14.5011 43.1642 13.9818 43.4777 13.3743V14.991C43.2425 15.4025 42.9486 15.7846 42.5959 16.1374C42.2627 16.4705 41.91 16.7939 41.5377 17.1074C41.1849 17.4209 40.8322 17.7345 40.4795 18.048C40.1267 18.3616 39.8034 18.6849 39.5094 19.018C39.2351 19.3512 39.0097 19.7137 38.8334 20.1056C38.657 20.4976 38.5492 20.9385 38.51 21.4284C38.4904 21.7811 38.5198 22.0947 38.5982 22.369C38.6766 22.6434 38.7942 22.8687 38.9509 23.0451C39.1273 23.2215 39.3331 23.3587 39.5682 23.4566C39.8034 23.535 40.0777 23.5644 40.3913 23.5448C40.6852 23.5448 40.9792 23.4762 41.2731 23.3391C41.5671 23.1823 41.8316 22.9667 42.0668 22.6924C42.3215 22.418 42.5469 22.0947 42.7428 21.7224C42.9388 21.3304 43.0956 20.8895 43.2132 20.3996L43.4483 22.6924C43.1544 23.1235 42.8506 23.5154 42.5371 23.8682C42.2431 24.2013 41.9296 24.4855 41.5964 24.7206C41.2633 24.9558 40.9106 25.1419 40.5382 25.2791C40.1659 25.4163 39.7446 25.4947 39.2743 25.5143Z" fill="white"/>
<path d="M58.427 10.1703C58.6033 10.6798 58.5935 11.1403 58.3976 11.5518C58.2212 11.9633 57.9664 12.2867 57.6333 12.5218C57.3198 12.757 56.9768 12.8942 56.6045 12.9334C56.2322 12.9529 55.9284 12.8452 55.6933 12.61C55.4385 12.2181 55.2621 11.7282 55.1641 11.1403C55.0858 10.5524 54.978 9.98409 54.8408 9.43539C54.7232 8.88669 54.5469 8.42617 54.3117 8.05384C54.0765 7.68151 53.6944 7.51494 53.1653 7.55413C52.6362 7.59332 52.2051 7.91667 51.8719 8.52415C51.5388 9.11205 51.2841 9.83712 51.1077 10.6994C50.9313 11.5616 50.8137 12.4728 50.755 13.4331C50.6962 14.3737 50.6668 15.2163 50.6668 15.961C50.6668 16.882 50.7452 17.8325 50.9019 18.8123C51.0587 19.7725 51.3037 20.6543 51.6368 21.4578C51.9699 22.2417 52.3913 22.8785 52.9008 23.3685C53.4103 23.8584 53.9982 24.0543 54.6644 23.9563C55.076 23.9172 55.4875 23.7702 55.899 23.5154C56.3105 23.2607 56.6829 22.9373 57.016 22.5454C57.3492 22.1339 57.6235 21.6734 57.8391 21.1639C58.0742 20.6543 58.231 20.1154 58.3094 19.5471L59.103 19.6647C59.0638 20.1742 58.9267 20.7719 58.6915 21.4578C58.4563 22.1241 58.1232 22.761 57.6921 23.3685C57.2806 23.9759 56.7417 24.5148 56.0754 24.9852C55.4287 25.4359 54.6546 25.6808 53.7532 25.72C52.6754 25.7984 51.725 25.5731 50.9019 25.044C50.0789 24.5148 49.3832 23.7898 48.8149 22.8687C48.2662 21.9477 47.8449 20.8797 47.5509 19.6647C47.2766 18.4497 47.1394 17.2054 47.1394 15.9316C47.1394 14.6578 47.2668 13.4723 47.5215 12.3749C47.7959 11.2579 48.1878 10.278 48.6973 9.43539C49.2264 8.59274 49.8633 7.92646 50.608 7.43655C51.3526 6.94664 52.2051 6.69189 53.1653 6.67229C53.812 6.6527 54.3999 6.71148 54.929 6.84866C55.4581 6.96624 55.9382 7.1622 56.3693 7.43655C56.82 7.7109 57.212 8.08323 57.5451 8.55355C57.8979 9.00427 58.1918 9.54317 58.427 10.1703Z" fill="white"/>
<path d="M67.4139 11.6106C67.3747 11.1403 67.3159 10.6602 67.2375 10.1703C67.1788 9.68034 67.0612 9.24922 66.8848 8.87689C66.7084 8.48496 66.4537 8.17142 66.1205 7.93626C65.807 7.7011 65.3857 7.60312 64.8566 7.64232C64.1903 7.68151 63.6808 8.01465 63.3281 8.64173C62.9753 9.26882 62.7108 10.0135 62.5344 10.8757C62.358 11.7184 62.2503 12.6002 62.2111 13.5212C62.1915 14.4227 62.1817 15.1869 62.1817 15.814C62.1817 16.9702 62.26 18.048 62.4168 19.0474C62.5736 20.0273 62.8087 20.8797 63.1223 21.6048C63.4554 22.3102 63.867 22.8491 64.3569 23.2215C64.8468 23.5938 65.4249 23.7506 66.0912 23.6918C66.5811 23.6526 67.0318 23.5056 67.4433 23.2509C67.8744 22.9765 68.2468 22.6532 68.5603 22.2809C68.8934 21.8889 69.158 21.4578 69.354 20.9875C69.5695 20.4976 69.7067 20.0077 69.7655 19.5178L70.5297 19.6647C70.4906 20.1154 70.3534 20.6739 70.1182 21.3402C69.9027 22.0065 69.5793 22.663 69.1482 23.3097C68.7367 23.9368 68.1978 24.4952 67.5315 24.9852C66.8848 25.4555 66.1009 25.72 65.1799 25.7788C64.1805 25.8376 63.2889 25.6318 62.505 25.1615C61.7211 24.6716 61.0549 23.9857 60.5062 23.1039C59.9771 22.2025 59.5655 21.1247 59.2716 19.8705C58.9972 18.6163 58.8601 17.2642 58.8601 15.814C58.8601 14.4619 58.9972 13.2273 59.2716 12.1103C59.5655 10.9737 59.9673 10.0037 60.4768 9.20023C61.0059 8.37718 61.633 7.7501 62.358 7.31897C63.1027 6.86826 63.9355 6.6429 64.8566 6.6429C65.6012 6.6429 66.3067 6.76048 66.973 6.99563C67.6393 7.23079 68.2174 7.60312 68.7073 8.11263C69.2168 8.60254 69.6283 9.23942 69.9418 10.0233C70.275 10.8071 70.4906 11.738 70.5885 12.8158C70.6081 13.0117 70.5591 13.2273 70.4416 13.4625C70.3436 13.678 70.2064 13.7858 70.03 13.7858H61.7407L61.7995 12.7276H66.4439C66.7574 12.7276 67.0024 12.6296 67.1788 12.4336C67.3551 12.2181 67.4335 11.9437 67.4139 11.6106Z" fill="white"/>
<path d="M69.3278 1.91036L69.5335 1.23428C69.8275 1.21468 70.19 1.1559 70.6211 1.05791C71.0523 0.940335 71.4932 0.842353 71.9439 0.763967C72.4142 0.665985 72.8747 0.577801 73.3254 0.499415C73.7958 0.421029 74.2073 0.381836 74.56 0.381836L74.5012 17.7835C74.5012 18.1166 74.5012 18.5869 74.5012 19.1944C74.5012 19.8019 74.511 20.429 74.5306 21.0757C74.5502 21.7224 74.5894 22.3298 74.6482 22.8981C74.707 23.4468 74.805 23.8486 74.9422 24.1033C75.0009 24.2601 75.1479 24.3777 75.3831 24.4561C75.6182 24.5148 75.8338 24.554 76.0298 24.5736V25.1615H69.9451V24.5442C70.141 24.5246 70.3468 24.4953 70.5624 24.4561C70.7975 24.3973 70.9543 24.2895 71.0327 24.1327C71.1502 23.8584 71.2384 23.4468 71.2972 22.8981C71.356 22.3298 71.3952 21.7224 71.4148 21.0757C71.454 20.429 71.4736 19.8117 71.4736 19.2238C71.4736 18.6163 71.4736 18.1362 71.4736 17.7835C71.4736 17.1368 71.4736 16.3235 71.4736 15.3437C71.4736 14.3639 71.4736 13.3351 71.4736 12.2573C71.4736 11.1599 71.4638 10.0625 71.4442 8.96508C71.4246 7.84808 71.3952 6.81927 71.356 5.87864C71.3168 4.91841 71.2678 4.10516 71.209 3.43888C71.1502 2.753 71.0719 2.30229 70.9739 2.08673C70.8955 1.94955 70.7877 1.87116 70.6505 1.85157C70.5134 1.83197 70.3664 1.84177 70.2096 1.88096C70.0724 1.90056 69.9255 1.92996 69.7687 1.96915C69.6119 1.98874 69.465 1.96915 69.3278 1.91036Z" fill="white"/>
<path d="M83.7477 25.5143L83.8065 20.3996C83.8653 19.5569 83.8849 18.6947 83.8653 17.8129C83.8457 16.931 83.8359 16.059 83.8359 15.1967C83.8163 14.4717 83.8065 13.6878 83.8065 12.8452C83.8261 12.0025 83.7771 11.2089 83.6595 10.4642C83.5615 9.71954 83.3656 9.11205 83.0716 8.64173C82.7973 8.15182 82.3661 7.91667 81.7783 7.93626C81.0532 7.93626 80.5045 8.08323 80.1321 8.37718C79.7794 8.65153 79.5247 9.02386 79.3679 9.49418C79.2111 9.96449 79.1229 10.5034 79.1033 11.1109C79.0837 11.7184 79.0641 12.3455 79.0445 12.9921C78.8682 13.4821 78.6036 13.7858 78.2509 13.9034C77.8982 14.021 77.5258 14.0797 77.1339 14.0797C76.7616 14.0993 76.4578 13.9916 76.2227 13.7564C75.9875 13.5016 75.8699 13.2469 75.8699 12.9921C75.8699 12.0515 76.0365 11.2089 76.3696 10.4642C76.7028 9.69994 77.1339 9.05326 77.663 8.52415C78.2117 7.99505 78.8388 7.59332 79.5443 7.31897C80.2693 7.02503 81.0238 6.87805 81.8076 6.87805C82.4739 6.87805 83.1108 6.97604 83.7183 7.172C84.3258 7.36796 84.8549 7.68151 85.3056 8.11263C85.7563 8.52416 86.1189 9.04346 86.3932 9.67055C86.6872 10.2976 86.8537 11.0227 86.8929 11.8458C86.9125 12.1985 86.9223 12.5414 86.9223 12.8746C86.9419 13.2077 86.9517 13.5408 86.9517 13.874C86.9517 14.3051 86.9419 15.0106 86.9223 15.9904C86.9027 16.9506 86.9027 17.95 86.9223 18.9887C86.9419 20.0273 86.9811 20.9973 87.0399 21.8987C87.1183 22.8002 87.2359 23.3783 87.3926 23.633C87.4514 23.7506 87.52 23.8192 87.5984 23.8388C87.6964 23.8584 87.7846 23.8682 87.8629 23.8682C88.0197 23.8682 88.1765 23.8584 88.3333 23.8388C88.49 23.7996 88.637 23.78 88.7742 23.78C88.833 23.78 88.882 23.7898 88.9212 23.8094C88.9603 23.8094 88.9995 23.8192 89.0387 23.8388L88.8624 24.5442C88.5292 24.5834 88.1373 24.6618 87.6866 24.7794C87.2359 24.8774 86.7753 24.9852 86.305 25.1027C85.8347 25.2007 85.3742 25.2889 84.9235 25.3673C84.4924 25.4653 84.1004 25.5143 83.7477 25.5143ZM79.8676 25.5143C79.2797 25.5731 78.731 25.5241 78.2215 25.3673C77.7316 25.2301 77.3005 25.0048 76.9281 24.6912C76.5754 24.3581 76.301 23.9367 76.1051 23.4272C75.9091 22.9177 75.8209 22.32 75.8405 21.6342C75.8405 20.8699 75.9973 20.2232 76.3108 19.6941C76.6244 19.1454 77.0359 18.6653 77.5454 18.2538C78.0549 17.8227 78.6134 17.4405 79.2209 17.1074C79.848 16.7743 80.4653 16.4313 81.0728 16.0786C81.6999 15.7258 82.278 15.3437 82.8071 14.9322C83.3362 14.5011 83.7575 13.9818 84.071 13.3743V14.991C83.8359 15.4025 83.5419 15.7846 83.1892 16.1374C82.8561 16.4705 82.5033 16.7939 82.131 17.1074C81.7783 17.4209 81.4255 17.7345 81.0728 18.048C80.72 18.3616 80.3967 18.6849 80.1028 19.018C79.8284 19.3512 79.603 19.7137 79.4267 20.1056C79.2503 20.4976 79.1425 20.9385 79.1033 21.4284C79.0837 21.7811 79.1131 22.0947 79.1915 22.369C79.2699 22.6434 79.3875 22.8687 79.5443 23.0451C79.7206 23.2215 79.9264 23.3587 80.1615 23.4566C80.3967 23.535 80.6711 23.5644 80.9846 23.5448C81.2785 23.5448 81.5725 23.4762 81.8664 23.3391C82.1604 23.1823 82.4249 22.9667 82.6601 22.6924C82.9148 22.418 83.1402 22.0947 83.3362 21.7224C83.5321 21.3304 83.6889 20.8895 83.8065 20.3996L84.0416 22.6924C83.7477 23.1235 83.4439 23.5154 83.1304 23.8682C82.8365 24.2013 82.5229 24.4855 82.1898 24.7206C81.8566 24.9558 81.5039 25.1419 81.1316 25.2791C80.7592 25.4163 80.3379 25.4947 79.8676 25.5143Z" fill="white"/>
<path d="M92.6299 15.9904L91.5717 14.4325C91.7285 13.8446 91.9343 13.1293 92.189 12.2867C92.4438 11.4244 92.7867 10.6014 93.2178 9.81752C93.6489 9.01407 94.1682 8.32819 94.7757 7.75989C95.4028 7.1916 96.1377 6.89765 96.9803 6.87805C97.4311 6.87805 97.872 6.96624 98.3031 7.14261C98.7342 7.31897 99.1261 7.60312 99.4789 7.99505C99.8316 8.38698 100.116 8.90629 100.331 9.55297C100.566 10.1997 100.684 11.0031 100.684 11.9633C100.704 12.4336 100.713 13.0411 100.713 13.7858C100.713 14.5305 100.713 15.3143 100.713 16.1374C100.713 16.9604 100.713 17.8031 100.713 18.6653C100.733 19.5276 100.753 20.331 100.772 21.0757C100.811 21.8007 100.86 22.4376 100.919 22.9863C100.998 23.535 101.086 23.9172 101.184 24.1327C101.262 24.2699 101.409 24.3679 101.625 24.4267C101.86 24.4855 102.075 24.5246 102.271 24.5442V25.1615H96.1867V24.5442C96.3826 24.5246 96.5884 24.4855 96.804 24.4267C97.0391 24.3679 97.1959 24.2699 97.2743 24.1327C97.3919 23.8584 97.48 23.4468 97.5388 22.8981C97.6172 22.3298 97.6662 21.7224 97.6858 21.0757C97.7054 20.429 97.7152 19.8117 97.7152 19.2238C97.7152 18.6163 97.7152 18.1362 97.7152 17.7835C97.7152 17.4307 97.7152 17.029 97.7152 16.5783C97.7152 16.108 97.7152 15.6377 97.7152 15.1673C97.7152 14.697 97.7054 14.2561 97.6858 13.8446C97.6858 13.4135 97.676 13.0607 97.6564 12.7864C97.6172 12.0025 97.5192 11.3754 97.3625 10.9051C97.2057 10.4348 97.0097 10.0723 96.7746 9.81752C96.559 9.56277 96.3337 9.3962 96.0985 9.31781C95.8633 9.23942 95.638 9.21983 95.4224 9.25902C95.0109 9.357 94.6288 9.60196 94.276 9.99389C93.9233 10.3858 93.6196 10.8855 93.3648 11.493C93.1296 12.1005 92.9435 12.7962 92.8063 13.58C92.6887 14.3443 92.6299 15.1478 92.6299 15.9904ZM87.4859 8.75931L87.6916 8.02445C87.9856 8.00485 88.3481 7.94606 88.7792 7.84808C89.2299 7.7501 89.6807 7.65211 90.1314 7.55413C90.6017 7.45615 91.0622 7.36797 91.5129 7.28958C91.9832 7.21119 92.3948 7.172 92.7475 7.172L92.6593 17.7835C92.6593 18.1166 92.6593 18.5869 92.6593 19.1944C92.6593 19.8019 92.6691 20.429 92.6887 21.0757C92.7083 21.7224 92.7475 22.3298 92.8063 22.8981C92.8651 23.4468 92.9631 23.8486 93.1002 24.1033C93.159 24.2601 93.306 24.3777 93.5412 24.4561C93.7763 24.5148 93.9919 24.554 94.1878 24.5736V25.1615H88.0738V24.5442C88.2697 24.5246 88.4755 24.4953 88.691 24.4561C88.9262 24.3973 89.083 24.2895 89.1614 24.1327C89.2789 23.8584 89.3671 23.4468 89.4259 22.8981C89.4847 22.3298 89.5239 21.7224 89.5435 21.0757C89.5827 20.429 89.6023 19.8019 89.6023 19.1944C89.6023 18.5869 89.6023 18.1068 89.6023 17.7541C89.6023 16.7743 89.6023 15.8238 89.6023 14.9028C89.6219 13.9818 89.6121 13.1391 89.5729 12.3749C89.5533 11.6106 89.5043 10.9345 89.4259 10.3466C89.3671 9.73913 89.2691 9.26882 89.132 8.93568C89.0536 8.7985 88.9458 8.72012 88.8086 8.70052C88.6715 8.68093 88.5245 8.69072 88.3677 8.72992C88.2305 8.74951 88.0836 8.77891 87.9268 8.8181C87.77 8.8377 87.623 8.8181 87.4859 8.75931Z" fill="white"/>
<path d="M110.131 11.6106C110.092 11.1403 110.033 10.6602 109.955 10.1703C109.896 9.68034 109.779 9.24922 109.602 8.87689C109.426 8.48496 109.171 8.17142 108.838 7.93626C108.525 7.7011 108.103 7.60312 107.574 7.64232C106.908 7.68151 106.398 8.01465 106.046 8.64173C105.693 9.26882 105.428 10.0135 105.252 10.8757C105.076 11.7184 104.968 12.6002 104.929 13.5212C104.909 14.4227 104.899 15.1869 104.899 15.814C104.899 16.9702 104.978 18.048 105.134 19.0474C105.291 20.0273 105.526 20.8797 105.84 21.6048C106.173 22.3102 106.585 22.8491 107.074 23.2215C107.564 23.5938 108.142 23.7506 108.809 23.6918C109.299 23.6526 109.749 23.5056 110.161 23.2509C110.592 22.9765 110.964 22.6532 111.278 22.2809C111.611 21.8889 111.876 21.4578 112.072 20.9875C112.287 20.4976 112.424 20.0077 112.483 19.5178L113.247 19.6647C113.208 20.1154 113.071 20.6739 112.836 21.3402C112.62 22.0065 112.297 22.663 111.866 23.3097C111.454 23.9368 110.915 24.4952 110.249 24.9852C109.602 25.4555 108.819 25.72 107.897 25.7788C106.898 25.8376 106.006 25.6318 105.223 25.1615C104.439 24.6716 103.772 23.9857 103.224 23.1039C102.695 22.2025 102.283 21.1247 101.989 19.8705C101.715 18.6163 101.578 17.2642 101.578 15.814C101.578 14.4619 101.715 13.2273 101.989 12.1103C102.283 10.9737 102.685 10.0037 103.194 9.20023C103.723 8.37718 104.351 7.7501 105.076 7.31897C105.82 6.86826 106.653 6.6429 107.574 6.6429C108.319 6.6429 109.024 6.76048 109.691 6.99563C110.357 7.23079 110.935 7.60312 111.425 8.11263C111.934 8.60254 112.346 9.23942 112.659 10.0233C112.993 10.8071 113.208 11.738 113.306 12.8158C113.326 13.0117 113.277 13.2273 113.159 13.4625C113.061 13.678 112.924 13.7858 112.748 13.7858H104.458L104.517 12.7276H109.161C109.475 12.7276 109.72 12.6296 109.896 12.4336C110.073 12.2181 110.151 11.9437 110.131 11.6106Z" fill="white"/>
</svg>
