<svg width="114" height="26" viewBox="0 0 114 26" fill="none" xmlns="http://www.w3.org/2000/svg">
<path d="M8.59807 4.74358L8.07965 6.34983L6.65093 5.45269C4.90648 4.35769 2.78244 6.14091 3.55761 8.04949L4.19274 9.61273L2.522 9.84377C0.481495 10.1264 -6.8893e-05 12.8584 1.82054 13.8219L3.31192 14.6109L2.18048 15.862C0.799671 17.3896 2.1854 19.7922 4.19888 19.3596L5.84873 19.0057L5.78607 20.6918C5.70991 22.7503 8.31552 23.6991 9.57962 22.0732L10.6152 20.741L11.6508 22.0732C12.915 23.6991 15.5218 22.7503 15.4444 20.6918L15.3817 19.0057L17.0316 19.3596C19.0451 19.7922 20.432 17.3896 19.05 15.862L17.9186 14.6109L19.4099 13.8219C21.2305 12.8584 20.749 10.1264 18.7085 9.84377L17.0377 9.61273L17.6729 8.04949C18.448 6.14091 16.324 4.35769 14.5795 5.45269L13.1508 6.34983L12.6324 4.74358C11.9997 2.78339 9.22705 2.78339 8.59438 4.74358H8.59807Z" fill="#EB3E5B"/>
<path d="M28.6831 1.23428C28.4675 1.23428 28.3107 1.29307 28.2128 1.41065C28.1148 1.52823 28.0658 1.6948 28.0658 1.91036L28.007 15.7846L24.8324 15.6377C24.8324 11.3264 24.7932 8.00485 24.7148 5.67287C24.6364 3.3409 24.4992 1.97895 24.3033 1.58702C24.2053 1.39105 24.0387 1.24408 23.8036 1.1461C23.588 1.04812 23.2843 1.00892 22.8923 1.02852V0.41123L28.0658 0.381836L29.1534 0.41123C31.505 0.430828 33.298 0.959932 34.5326 1.99854C35.7868 3.03715 36.4139 4.62446 36.4139 6.76048C36.4139 7.79909 36.2669 8.75931 35.973 9.64115C35.679 10.5034 35.2577 11.2579 34.709 11.9045C34.1603 12.5316 33.494 13.0215 32.7101 13.3743C31.9263 13.727 31.0445 13.9132 30.0646 13.9328L27.5367 13.9622L27.5955 12.8746H29.2416C29.9079 12.8746 30.486 12.7178 30.9759 12.4042C31.4658 12.0711 31.8675 11.6302 32.181 11.0815C32.4946 10.5328 32.7297 9.8959 32.8865 9.17084C33.0433 8.42617 33.1119 7.63252 33.0923 6.78987C33.0923 5.84924 33.0139 5.03599 32.8571 4.35012C32.7199 3.64464 32.4848 3.05675 32.1516 2.58644C31.8381 2.11612 31.4168 1.77318 30.8877 1.55762C30.3586 1.32246 29.7119 1.21468 28.9476 1.23428H28.6831ZM24.8324 15.6377L28.007 15.7846C28.007 17.9206 28.007 19.7137 28.007 21.1639C28.007 22.614 28.1638 23.5938 28.4773 24.1033C28.5361 24.2405 28.6635 24.3483 28.8594 24.4267C29.0554 24.4855 29.3102 24.5246 29.6237 24.5442V25.1615H23.1275V24.5736C23.4606 24.554 23.735 24.505 23.9505 24.4267C24.1661 24.3287 24.3033 24.2209 24.3621 24.1033C24.4992 23.8682 24.5972 23.4958 24.656 22.9863C24.7344 22.4768 24.7834 21.8595 24.803 21.1345C24.8226 20.4094 24.8324 19.5863 24.8324 18.6653C24.8324 17.7247 24.8324 16.7155 24.8324 15.6377Z" fill="#1E1E1E"/>
<path d="M43.8441 25.5143L43.9029 20.3996C43.9616 19.5569 43.9812 18.6947 43.9616 17.8129C43.942 16.931 43.9322 16.059 43.9322 15.1967C43.9127 14.4717 43.9029 13.6878 43.9029 12.8452C43.9224 12.0025 43.8735 11.2089 43.7559 10.4642C43.6579 9.71954 43.4619 9.11205 43.168 8.64173C42.8936 8.15182 42.4625 7.91667 41.8746 7.93626C41.1496 7.93626 40.6009 8.08323 40.2285 8.37718C39.8758 8.65153 39.621 9.02386 39.4643 9.49418C39.3075 9.96449 39.2193 10.5034 39.1997 11.1109C39.1801 11.7184 39.1605 12.3455 39.1409 12.9921C38.9645 13.4821 38.7 13.7858 38.3473 13.9034C37.9945 14.021 37.6222 14.0797 37.2303 14.0797C36.8579 14.0993 36.5542 13.9916 36.319 13.7564C36.0839 13.5016 35.9663 13.2469 35.9663 12.9921C35.9663 12.0515 36.1329 11.2089 36.466 10.4642C36.7991 9.69994 37.2303 9.05326 37.7594 8.52415C38.3081 7.99505 38.9352 7.59332 39.6406 7.31897C40.3657 7.02503 41.1202 6.87805 41.904 6.87805C42.5703 6.87805 43.2072 6.97604 43.8147 7.172C44.4222 7.36796 44.9513 7.68151 45.402 8.11263C45.8527 8.52416 46.2152 9.04346 46.4896 9.67055C46.7835 10.2976 46.9501 11.0227 46.9893 11.8458C47.0089 12.1985 47.0187 12.5414 47.0187 12.8746C47.0383 13.2077 47.0481 13.5408 47.0481 13.874C47.0481 14.3051 47.0383 15.0106 47.0187 15.9904C46.9991 16.9506 46.9991 17.95 47.0187 18.9887C47.0383 20.0273 47.0775 20.9973 47.1363 21.8987C47.2147 22.8002 47.3322 23.3783 47.489 23.633C47.5478 23.7506 47.6164 23.8192 47.6948 23.8388C47.7927 23.8584 47.8809 23.8682 47.9593 23.8682C48.1161 23.8682 48.2729 23.8584 48.4296 23.8388C48.5864 23.7996 48.7334 23.78 48.8705 23.78C48.9293 23.78 48.9783 23.7898 49.0175 23.8094C49.0567 23.8094 49.0959 23.8192 49.1351 23.8388L48.9587 24.5442C48.6256 24.5834 48.2337 24.6618 47.7829 24.7794C47.3322 24.8774 46.8717 24.9852 46.4014 25.1027C45.9311 25.2007 45.4706 25.2889 45.0198 25.3673C44.5887 25.4653 44.1968 25.5143 43.8441 25.5143ZM39.964 25.5143C39.3761 25.5731 38.8274 25.5241 38.3179 25.3673C37.828 25.2301 37.3968 25.0048 37.0245 24.6912C36.6718 24.3581 36.3974 23.9367 36.2015 23.4272C36.0055 22.9177 35.9173 22.32 35.9369 21.6342C35.9369 20.8699 36.0937 20.2232 36.4072 19.6941C36.7208 19.1454 37.1323 18.6653 37.6418 18.2538C38.1513 17.8227 38.7098 17.4405 39.3173 17.1074C39.9444 16.7743 40.5617 16.4313 41.1691 16.0786C41.7962 15.7258 42.3743 15.3437 42.9034 14.9322C43.4325 14.5011 43.8539 13.9818 44.1674 13.3743V14.991C43.9322 15.4025 43.6383 15.7846 43.2856 16.1374C42.9524 16.4705 42.5997 16.7939 42.2274 17.1074C41.8746 17.4209 41.5219 17.7345 41.1691 18.048C40.8164 18.3616 40.4931 18.6849 40.1991 19.018C39.9248 19.3512 39.6994 19.7137 39.523 20.1056C39.3467 20.4976 39.2389 20.9385 39.1997 21.4284C39.1801 21.7811 39.2095 22.0947 39.2879 22.369C39.3663 22.6434 39.4839 22.8687 39.6406 23.0451C39.817 23.2215 40.0228 23.3587 40.2579 23.4566C40.4931 23.535 40.7674 23.5644 41.081 23.5448C41.3749 23.5448 41.6689 23.4762 41.9628 23.3391C42.2568 23.1823 42.5213 22.9667 42.7565 22.6924C43.0112 22.418 43.2366 22.0947 43.4325 21.7224C43.6285 21.3304 43.7853 20.8895 43.9029 20.3996L44.138 22.6924C43.8441 23.1235 43.5403 23.5154 43.2268 23.8682C42.9328 24.2013 42.6193 24.4855 42.2861 24.7206C41.953 24.9558 41.6003 25.1419 41.2279 25.2791C40.8556 25.4163 40.4343 25.4947 39.964 25.5143Z" fill="#1E1E1E"/>
<path d="M59.1167 10.1703C59.293 10.6798 59.2832 11.1403 59.0873 11.5518C58.9109 11.9633 58.6561 12.2867 58.323 12.5218C58.0095 12.757 57.6665 12.8942 57.2942 12.9334C56.9219 12.9529 56.6181 12.8452 56.383 12.61C56.1282 12.2181 55.9518 11.7282 55.8538 11.1403C55.7755 10.5524 55.6677 9.98409 55.5305 9.43539C55.4129 8.88669 55.2366 8.42617 55.0014 8.05384C54.7662 7.68151 54.3841 7.51494 53.855 7.55413C53.3259 7.59332 52.8948 7.91667 52.5616 8.52415C52.2285 9.11205 51.9738 9.83712 51.7974 10.6994C51.621 11.5616 51.5034 12.4728 51.4446 13.4331C51.3859 14.3737 51.3565 15.2163 51.3565 15.961C51.3565 16.882 51.4348 17.8325 51.5916 18.8123C51.7484 19.7725 51.9933 20.6543 52.3265 21.4578C52.6596 22.2417 53.081 22.8785 53.5905 23.3685C54.1 23.8584 54.6879 24.0543 55.3541 23.9563C55.7657 23.9172 56.1772 23.7702 56.5887 23.5154C57.0002 23.2607 57.3726 22.9373 57.7057 22.5454C58.0388 22.1339 58.3132 21.6734 58.5288 21.1639C58.7639 20.6543 58.9207 20.1154 58.9991 19.5471L59.7927 19.6647C59.7535 20.1742 59.6164 20.7719 59.3812 21.4578C59.146 22.1241 58.8129 22.761 58.3818 23.3685C57.9703 23.9759 57.4314 24.5148 56.7651 24.9852C56.1184 25.4359 55.3443 25.6808 54.4429 25.72C53.3651 25.7984 52.4147 25.5731 51.5916 25.044C50.7686 24.5148 50.0729 23.7898 49.5046 22.8687C48.9559 21.9477 48.5346 20.8797 48.2406 19.6647C47.9663 18.4497 47.8291 17.2054 47.8291 15.9316C47.8291 14.6578 47.9565 13.4723 48.2112 12.3749C48.4856 11.2579 48.8775 10.278 49.387 9.43539C49.9161 8.59274 50.553 7.92646 51.2977 7.43655C52.0423 6.94664 52.8948 6.69189 53.855 6.67229C54.5017 6.6527 55.0896 6.71148 55.6187 6.84866C56.1478 6.96624 56.6279 7.1622 57.059 7.43655C57.5097 7.7109 57.9017 8.08323 58.2348 8.55355C58.5875 9.00427 58.8815 9.54317 59.1167 10.1703Z" fill="#1E1E1E"/>
<path d="M68.1036 11.6106C68.0644 11.1403 68.0056 10.6602 67.9272 10.1703C67.8684 9.68034 67.7509 9.24922 67.5745 8.87689C67.3981 8.48496 67.1434 8.17142 66.8102 7.93626C66.4967 7.7011 66.0754 7.60312 65.5463 7.64232C64.88 7.68151 64.3705 8.01465 64.0177 8.64173C63.665 9.26882 63.4005 10.0135 63.2241 10.8757C63.0477 11.7184 62.9399 12.6002 62.9008 13.5212C62.8812 14.4227 62.8714 15.1869 62.8714 15.814C62.8714 16.9702 62.9497 18.048 63.1065 19.0474C63.2633 20.0273 63.4984 20.8797 63.812 21.6048C64.1451 22.3102 64.5567 22.8491 65.0466 23.2215C65.5365 23.5938 66.1146 23.7506 66.7808 23.6918C67.2708 23.6526 67.7215 23.5056 68.133 23.2509C68.5641 22.9765 68.9365 22.6532 69.25 22.2809C69.5831 21.8889 69.8477 21.4578 70.0437 20.9875C70.2592 20.4976 70.3964 20.0077 70.4552 19.5178L71.2194 19.6647C71.1803 20.1154 71.0431 20.6739 70.8079 21.3402C70.5924 22.0065 70.269 22.663 69.8379 23.3097C69.4264 23.9368 68.8875 24.4952 68.2212 24.9852C67.5745 25.4555 66.7906 25.72 65.8696 25.7788C64.8702 25.8376 63.9786 25.6318 63.1947 25.1615C62.4108 24.6716 61.7446 23.9857 61.1959 23.1039C60.6668 22.2025 60.2552 21.1247 59.9613 19.8705C59.6869 18.6163 59.5498 17.2642 59.5498 15.814C59.5498 14.4619 59.6869 13.2273 59.9613 12.1103C60.2552 10.9737 60.657 10.0037 61.1665 9.20023C61.6956 8.37718 62.3227 7.7501 63.0477 7.31897C63.7924 6.86826 64.6252 6.6429 65.5463 6.6429C66.2909 6.6429 66.9964 6.76048 67.6627 6.99563C68.329 7.23079 68.9071 7.60312 69.397 8.11263C69.9065 8.60254 70.318 9.23942 70.6315 10.0233C70.9647 10.8071 71.1802 11.738 71.2782 12.8158C71.2978 13.0117 71.2488 13.2273 71.1313 13.4625C71.0333 13.678 70.8961 13.7858 70.7197 13.7858H62.4304L62.4892 12.7276H67.1336C67.4471 12.7276 67.6921 12.6296 67.8685 12.4336C68.0448 12.2181 68.1232 11.9437 68.1036 11.6106Z" fill="#1E1E1E"/>
<path d="M70.0175 1.91036L70.2232 1.23428C70.5172 1.21468 70.8797 1.1559 71.3108 1.05791C71.742 0.940335 72.1829 0.842353 72.6336 0.763967C73.1039 0.665985 73.5644 0.577801 74.0151 0.499415C74.4855 0.421029 74.897 0.381836 75.2497 0.381836L75.1909 17.7835C75.1909 18.1166 75.1909 18.5869 75.1909 19.1944C75.1909 19.8019 75.2007 20.429 75.2203 21.0757C75.2399 21.7224 75.2791 22.3298 75.3379 22.8981C75.3967 23.4468 75.4947 23.8486 75.6319 24.1033C75.6906 24.2601 75.8376 24.3777 76.0728 24.4561C76.3079 24.5148 76.5235 24.554 76.7195 24.5736V25.1615H70.6348V24.5442C70.8307 24.5246 71.0365 24.4953 71.2521 24.4561C71.4872 24.3973 71.644 24.2895 71.7224 24.1327C71.8399 23.8584 71.9281 23.4468 71.9869 22.8981C72.0457 22.3298 72.0849 21.7224 72.1045 21.0757C72.1437 20.429 72.1633 19.8117 72.1633 19.2238C72.1633 18.6163 72.1633 18.1362 72.1633 17.7835C72.1633 17.1368 72.1633 16.3235 72.1633 15.3437C72.1633 14.3639 72.1633 13.3351 72.1633 12.2573C72.1633 11.1599 72.1535 10.0625 72.1339 8.96508C72.1143 7.84808 72.0849 6.81927 72.0457 5.87864C72.0065 4.91841 71.9575 4.10516 71.8987 3.43888C71.8399 2.753 71.7616 2.30229 71.6636 2.08673C71.5852 1.94955 71.4774 1.87116 71.3402 1.85157C71.2031 1.83197 71.0561 1.84177 70.8993 1.88096C70.7621 1.90056 70.6152 1.92996 70.4584 1.96915C70.3016 1.98874 70.1547 1.96915 70.0175 1.91036Z" fill="#1E1E1E"/>
<path d="M84.4374 25.5143L84.4962 20.3996C84.555 19.5569 84.5746 18.6947 84.555 17.8129C84.5354 16.931 84.5256 16.059 84.5256 15.1967C84.506 14.4717 84.4962 13.6878 84.4962 12.8452C84.5158 12.0025 84.4668 11.2089 84.3492 10.4642C84.2512 9.71954 84.0553 9.11205 83.7613 8.64173C83.487 8.15182 83.0558 7.91667 82.4679 7.93626C81.7429 7.93626 81.1942 8.08323 80.8218 8.37718C80.4691 8.65153 80.2144 9.02386 80.0576 9.49418C79.9008 9.96449 79.8126 10.5034 79.793 11.1109C79.7734 11.7184 79.7538 12.3455 79.7342 12.9921C79.5579 13.4821 79.2933 13.7858 78.9406 13.9034C78.5879 14.021 78.2155 14.0797 77.8236 14.0797C77.4513 14.0993 77.1475 13.9916 76.9124 13.7564C76.6772 13.5016 76.5596 13.2469 76.5596 12.9921C76.5596 12.0515 76.7262 11.2089 77.0593 10.4642C77.3925 9.69994 77.8236 9.05326 78.3527 8.52415C78.9014 7.99505 79.5285 7.59332 80.234 7.31897C80.959 7.02503 81.7135 6.87805 82.4973 6.87805C83.1636 6.87805 83.8005 6.97604 84.408 7.172C85.0155 7.36796 85.5446 7.68151 85.9953 8.11263C86.446 8.52416 86.8086 9.04346 87.0829 9.67055C87.3769 10.2976 87.5434 11.0227 87.5826 11.8458C87.6022 12.1985 87.612 12.5414 87.612 12.8746C87.6316 13.2077 87.6414 13.5408 87.6414 13.874C87.6414 14.3051 87.6316 15.0106 87.612 15.9904C87.5924 16.9506 87.5924 17.95 87.612 18.9887C87.6316 20.0273 87.6708 20.9973 87.7296 21.8987C87.808 22.8002 87.9256 23.3783 88.0823 23.633C88.1411 23.7506 88.2097 23.8192 88.2881 23.8388C88.3861 23.8584 88.4743 23.8682 88.5526 23.8682C88.7094 23.8682 88.8662 23.8584 89.023 23.8388C89.1797 23.7996 89.3267 23.78 89.4639 23.78C89.5227 23.78 89.5717 23.7898 89.6109 23.8094C89.65 23.8094 89.6892 23.8192 89.7284 23.8388L89.5521 24.5442C89.2189 24.5834 88.827 24.6618 88.3763 24.7794C87.9256 24.8774 87.465 24.9852 86.9947 25.1027C86.5244 25.2007 86.0639 25.2889 85.6132 25.3673C85.1821 25.4653 84.7901 25.5143 84.4374 25.5143ZM80.5573 25.5143C79.9694 25.5731 79.4207 25.5241 78.9112 25.3673C78.4213 25.2301 77.9902 25.0048 77.6178 24.6912C77.2651 24.3581 76.9907 23.9367 76.7948 23.4272C76.5988 22.9177 76.5106 22.32 76.5302 21.6342C76.5302 20.8699 76.687 20.2232 77.0005 19.6941C77.3141 19.1454 77.7256 18.6653 78.2351 18.2538C78.7446 17.8227 79.3031 17.4405 79.9106 17.1074C80.5377 16.7743 81.155 16.4313 81.7625 16.0786C82.3896 15.7258 82.9677 15.3437 83.4968 14.9322C84.0259 14.5011 84.4472 13.9818 84.7607 13.3743V14.991C84.5256 15.4025 84.2316 15.7846 83.8789 16.1374C83.5458 16.4705 83.193 16.7939 82.8207 17.1074C82.4679 17.4209 82.1152 17.7345 81.7625 18.048C81.4097 18.3616 81.0864 18.6849 80.7925 19.018C80.5181 19.3512 80.2927 19.7137 80.1164 20.1056C79.94 20.4976 79.8322 20.9385 79.793 21.4284C79.7734 21.7811 79.8028 22.0947 79.8812 22.369C79.9596 22.6434 80.0772 22.8687 80.234 23.0451C80.4103 23.2215 80.6161 23.3587 80.8512 23.4566C81.0864 23.535 81.3608 23.5644 81.6743 23.5448C81.9682 23.5448 82.2622 23.4762 82.5561 23.3391C82.8501 23.1823 83.1146 22.9667 83.3498 22.6924C83.6045 22.418 83.8299 22.0947 84.0259 21.7224C84.2218 21.3304 84.3786 20.8895 84.4962 20.3996L84.7313 22.6924C84.4374 23.1235 84.1336 23.5154 83.8201 23.8682C83.5262 24.2013 83.2126 24.4855 82.8795 24.7206C82.5463 24.9558 82.1936 25.1419 81.8213 25.2791C81.4489 25.4163 81.0276 25.4947 80.5573 25.5143Z" fill="#1E1E1E"/>
<path d="M93.3196 15.9904L92.2614 14.4325C92.4182 13.8446 92.624 13.1293 92.8787 12.2867C93.1335 11.4244 93.4764 10.6014 93.9075 9.81752C94.3386 9.01407 94.8579 8.32819 95.4654 7.75989C96.0925 7.1916 96.8274 6.89765 97.67 6.87805C98.1208 6.87805 98.5617 6.96624 98.9928 7.14261C99.4239 7.31897 99.8158 7.60312 100.169 7.99505C100.521 8.38698 100.805 8.90629 101.021 9.55297C101.256 10.1997 101.374 11.0031 101.374 11.9633C101.393 12.4336 101.403 13.0411 101.403 13.7858C101.403 14.5305 101.403 15.3143 101.403 16.1374C101.403 16.9604 101.403 17.8031 101.403 18.6653C101.423 19.5276 101.442 20.331 101.462 21.0757C101.501 21.8007 101.55 22.4376 101.609 22.9863C101.687 23.535 101.775 23.9172 101.873 24.1327C101.952 24.2699 102.099 24.3679 102.314 24.4267C102.55 24.4855 102.765 24.5246 102.961 24.5442V25.1615H96.8764V24.5442C97.0723 24.5246 97.2781 24.4855 97.4937 24.4267C97.7288 24.3679 97.8856 24.2699 97.964 24.1327C98.0816 23.8584 98.1697 23.4468 98.2285 22.8981C98.3069 22.3298 98.3559 21.7224 98.3755 21.0757C98.3951 20.429 98.4049 19.8117 98.4049 19.2238C98.4049 18.6163 98.4049 18.1362 98.4049 17.7835C98.4049 17.4307 98.4049 17.029 98.4049 16.5783C98.4049 16.108 98.4049 15.6377 98.4049 15.1673C98.4049 14.697 98.3951 14.2561 98.3755 13.8446C98.3755 13.4135 98.3657 13.0607 98.3461 12.7864C98.3069 12.0025 98.2089 11.3754 98.0522 10.9051C97.8954 10.4348 97.6994 10.0723 97.4643 9.81752C97.2487 9.56277 97.0234 9.3962 96.7882 9.31781C96.553 9.23942 96.3277 9.21983 96.1121 9.25902C95.7006 9.357 95.3185 9.60196 94.9657 9.99389C94.613 10.3858 94.3092 10.8855 94.0545 11.493C93.8193 12.1005 93.6332 12.7962 93.496 13.58C93.3784 14.3443 93.3196 15.1478 93.3196 15.9904ZM88.1756 8.75931L88.3813 8.02445C88.6753 8.00485 89.0378 7.94606 89.4689 7.84808C89.9196 7.7501 90.3704 7.65211 90.8211 7.55413C91.2914 7.45615 91.7519 7.36797 92.2026 7.28958C92.6729 7.21119 93.0845 7.172 93.4372 7.172L93.349 17.7835C93.349 18.1166 93.349 18.5869 93.349 19.1944C93.349 19.8019 93.3588 20.429 93.3784 21.0757C93.398 21.7224 93.4372 22.3298 93.496 22.8981C93.5548 23.4468 93.6528 23.8486 93.7899 24.1033C93.8487 24.2601 93.9957 24.3777 94.2309 24.4561C94.466 24.5148 94.6816 24.554 94.8775 24.5736V25.1615H88.7635V24.5442C88.9594 24.5246 89.1652 24.4953 89.3807 24.4561C89.6159 24.3973 89.7727 24.2895 89.8511 24.1327C89.9686 23.8584 90.0568 23.4468 90.1156 22.8981C90.1744 22.3298 90.2136 21.7224 90.2332 21.0757C90.2724 20.429 90.292 19.8019 90.292 19.1944C90.292 18.5869 90.292 18.1068 90.292 17.7541C90.292 16.7743 90.292 15.8238 90.292 14.9028C90.3116 13.9818 90.3018 13.1391 90.2626 12.3749C90.243 11.6106 90.194 10.9345 90.1156 10.3466C90.0568 9.73913 89.9588 9.26882 89.8217 8.93568C89.7433 8.7985 89.6355 8.72012 89.4983 8.70052C89.3611 8.68093 89.2142 8.69072 89.0574 8.72992C88.9202 8.74951 88.7733 8.77891 88.6165 8.8181C88.4597 8.8377 88.3127 8.8181 88.1756 8.75931Z" fill="#1E1E1E"/>
<path d="M110.821 11.6106C110.782 11.1403 110.723 10.6602 110.645 10.1703C110.586 9.68034 110.468 9.24922 110.292 8.87689C110.116 8.48496 109.861 8.17142 109.528 7.93626C109.214 7.7011 108.793 7.60312 108.264 7.64232C107.598 7.68151 107.088 8.01465 106.735 8.64173C106.383 9.26882 106.118 10.0135 105.942 10.8757C105.765 11.7184 105.657 12.6002 105.618 13.5212C105.599 14.4227 105.589 15.1869 105.589 15.814C105.589 16.9702 105.667 18.048 105.824 19.0474C105.981 20.0273 106.216 20.8797 106.53 21.6048C106.863 22.3102 107.274 22.8491 107.764 23.2215C108.254 23.5938 108.832 23.7506 109.498 23.6918C109.988 23.6526 110.439 23.5056 110.851 23.2509C111.282 22.9765 111.654 22.6532 111.968 22.2809C112.301 21.8889 112.565 21.4578 112.761 20.9875C112.977 20.4976 113.114 20.0077 113.173 19.5178L113.937 19.6647C113.898 20.1154 113.761 20.6739 113.525 21.3402C113.31 22.0065 112.987 22.663 112.555 23.3097C112.144 23.9368 111.605 24.4952 110.939 24.9852C110.292 25.4555 109.508 25.72 108.587 25.7788C107.588 25.8376 106.696 25.6318 105.912 25.1615C105.128 24.6716 104.462 23.9857 103.913 23.1039C103.384 22.2025 102.973 21.1247 102.679 19.8705C102.404 18.6163 102.267 17.2642 102.267 15.814C102.267 14.4619 102.404 13.2273 102.679 12.1103C102.973 10.9737 103.375 10.0037 103.884 9.20023C104.413 8.37718 105.04 7.7501 105.765 7.31897C106.51 6.86826 107.343 6.6429 108.264 6.6429C109.008 6.6429 109.714 6.76048 110.38 6.99563C111.047 7.23079 111.625 7.60312 112.115 8.11263C112.624 8.60254 113.036 9.23942 113.349 10.0233C113.682 10.8071 113.898 11.738 113.996 12.8158C114.015 13.0117 113.966 13.2273 113.849 13.4625C113.751 13.678 113.614 13.7858 113.437 13.7858H105.148L105.207 12.7276H109.851C110.165 12.7276 110.41 12.6296 110.586 12.4336C110.762 12.2181 110.841 11.9437 110.821 11.6106Z" fill="#1E1E1E"/>
</svg>
