<svg width="1149" height="1136" viewBox="0 0 1149 1136" fill="none" xmlns="http://www.w3.org/2000/svg">
<path d="M458.125 85.5359L428.141 178.436L345.509 126.548C244.616 63.2171 121.769 166.352 166.602 276.738L203.336 367.15L106.706 380.513C-11.3096 396.861 -39.1615 554.869 66.1362 610.595L152.392 656.228L86.9541 728.586C7.09265 816.937 87.2384 955.896 203.691 930.876L299.112 910.406L295.489 1007.93C291.084 1126.98 441.783 1181.86 514.895 1087.82L574.791 1010.77L634.687 1087.82C707.798 1181.86 858.569 1126.98 854.092 1007.93L850.469 910.406L945.89 930.876C1062.34 955.896 1142.56 816.937 1062.63 728.586L997.189 656.228L1083.45 610.595C1188.74 554.869 1160.89 396.861 1042.88 380.513L946.246 367.15L982.979 276.738C1027.81 166.352 904.965 63.2171 804.072 126.548L721.44 178.436L691.456 85.5359C654.865 -27.8349 494.503 -27.8349 457.912 85.5359H458.125Z" fill="#EB3E5B"/>
</svg>
