<svg width="125" height="152" viewBox="0 0 125 152" fill="none" xmlns="http://www.w3.org/2000/svg">
<g clip-path="url(#clip0_14237_2353)">
<path d="M109.44 5.61004C96.3099 1.86004 78.0199 14.94 62.4399 37.12C51.1499 13.29 35.4999 -1.88996 21.8299 0.190045C2.55994 3.12004 -5.46006 39.23 3.92994 80.86C11.7999 115.75 29.3899 143.42 46.2299 149.75C46.3299 149.79 46.4299 149.83 46.5199 149.87C46.5599 149.88 46.5999 149.9 46.6399 149.91C47.0999 150.09 47.5599 150.26 48.0399 150.4C48.7099 150.59 49.4099 150.73 50.1099 150.83C52.0399 151.17 53.9599 151.22 55.8299 150.94C57.0099 150.76 58.1499 150.45 59.2399 150.03C76.7999 144.86 98.4499 120.16 112.27 87.58C129.23 47.6 127.97 10.9 109.46 5.61004H109.44Z" fill="#6060F8"/>
<path d="M40.68 66.98C48.4672 66.98 54.78 62.176 54.78 56.25C54.78 50.324 48.4672 45.52 40.68 45.52C32.8927 45.52 26.58 50.324 26.58 56.25C26.58 62.176 32.8927 66.98 40.68 66.98Z" fill="white"/>
<path d="M27.4399 52.16C28.5099 56.11 32.1099 59.02 36.3999 59.02C41.5299 59.02 45.6899 54.86 45.6899 49.73C45.6899 48.43 45.4199 47.2 44.9399 46.07C43.5299 45.71 42.0299 45.51 40.4699 45.51C34.5899 45.51 29.5499 48.26 27.4399 52.16Z" fill="#333333"/>
<path d="M83.94 66.98C91.7272 66.98 98.04 62.176 98.04 56.25C98.04 50.324 91.7272 45.52 83.94 45.52C76.1528 45.52 69.84 50.324 69.84 56.25C69.84 62.176 76.1528 66.98 83.94 66.98Z" fill="white"/>
<path d="M70.71 52.16C71.78 56.11 75.38 59.02 79.67 59.02C84.8 59.02 88.96 54.86 88.96 49.73C88.96 48.43 88.69 47.2 88.21 46.07C86.8 45.71 85.3 45.51 83.74 45.51C77.86 45.51 72.82 48.26 70.71 52.16Z" fill="#333333"/>
</g>
<defs>
<clipPath id="clip0_14237_2353">
<rect width="124.2" height="151.12" fill="white"/>
</clipPath>
</defs>
</svg>
