<svg width="167" height="80" viewBox="0 0 167 80" fill="none" xmlns="http://www.w3.org/2000/svg">
<g clip-path="url(#clip0_14237_2341)">
<path d="M127.28 0C119.19 0 111.67 2.42 105.39 6.58C99.11 2.43 91.59 0 83.5 0C75.41 0 67.89 2.42 61.61 6.58C55.33 2.42 47.81 0 39.72 0C17.78 0 0 17.78 0 39.72C0 61.66 17.78 79.44 39.72 79.44C47.81 79.44 55.33 77.02 61.61 72.86C67.89 77.01 75.41 79.44 83.5 79.44C91.59 79.44 99.11 77.02 105.39 72.86C111.67 77.01 119.19 79.44 127.28 79.44C149.22 79.44 167 61.66 167 39.72C167 17.78 149.22 0 127.28 0Z" fill="#44B8A7"/>
<path d="M133.64 33.6C138.721 33.6 142.84 29.481 142.84 24.4C142.84 19.319 138.721 15.2 133.64 15.2C128.559 15.2 124.44 19.319 124.44 24.4C124.44 29.481 128.559 33.6 133.64 33.6Z" fill="white"/>
<path d="M139.7 27.54C141.434 27.54 142.84 26.1342 142.84 24.4C142.84 22.6658 141.434 21.26 139.7 21.26C137.966 21.26 136.56 22.6658 136.56 24.4C136.56 26.1342 137.966 27.54 139.7 27.54Z" fill="#333333"/>
<path d="M40.6399 33.6C45.721 33.6 49.8399 29.481 49.8399 24.4C49.8399 19.319 45.721 15.2 40.6399 15.2C35.5589 15.2 31.4399 19.319 31.4399 24.4C31.4399 29.481 35.5589 33.6 40.6399 33.6Z" fill="white"/>
<path d="M46.7001 27.54C48.4342 27.54 49.8401 26.1342 49.8401 24.4C49.8401 22.6658 48.4342 21.26 46.7001 21.26C44.9659 21.26 43.5601 22.6658 43.5601 24.4C43.5601 26.1342 44.9659 27.54 46.7001 27.54Z" fill="#333333"/>
</g>
<defs>
<clipPath id="clip0_14237_2341">
<rect width="167" height="79.45" fill="white"/>
</clipPath>
</defs>
</svg>
