<svg width="175" height="97" viewBox="0 0 175 97" fill="none" xmlns="http://www.w3.org/2000/svg">
<g clip-path="url(#clip0_14237_2285)">
<path d="M159.42 57.62C149.4 57.92 142.23 47.11 145.59 36.77C150.36 22.1 134.73 9.65999 123.46 19.16C115.52 25.85 103.92 21.73 101.09 11.2C97.07 -3.74 77.75 -3.74 73.74 11.2C70.91 21.73 59.31 25.86 51.37 19.16C40.1 9.65999 24.48 22.1 29.24 36.77C32.6 47.11 25.43 57.92 15.41 57.62C1.19998 57.19 -6.40002 80.79 6.95998 86.11C44.77 101.17 129.45 99.15 167.88 86.11C181.46 81.5 173.64 57.18 159.43 57.62H159.42Z" fill="#EB3E5B"/>
<path d="M48.9 61.34C54.9034 61.34 59.77 54.9869 59.77 47.15C59.77 39.313 54.9034 32.96 48.9 32.96C42.8967 32.96 38.03 39.313 38.03 47.15C38.03 54.9869 42.8967 61.34 48.9 61.34Z" fill="white"/>
<path d="M45.83 49.32C48.4423 49.32 50.56 46.5531 50.56 43.14C50.56 39.7268 48.4423 36.96 45.83 36.96C43.2177 36.96 41.1 39.7268 41.1 43.14C41.1 46.5531 43.2177 49.32 45.83 49.32Z" fill="#333333"/>
<path d="M73.9 61.34C79.9034 61.34 84.77 54.9869 84.77 47.15C84.77 39.313 79.9034 32.96 73.9 32.96C67.8967 32.96 63.03 39.313 63.03 47.15C63.03 54.9869 67.8967 61.34 73.9 61.34Z" fill="white"/>
<path d="M70.83 49.32C73.4423 49.32 75.56 46.5531 75.56 43.14C75.56 39.7268 73.4423 36.96 70.83 36.96C68.2177 36.96 66.1 39.7268 66.1 43.14C66.1 46.5531 68.2177 49.32 70.83 49.32Z" fill="#333333"/>
</g>
<defs>
<clipPath id="clip0_14237_2285">
<rect width="174.92" height="96.67" fill="white"/>
</clipPath>
</defs>
</svg>
