<svg width="154" height="154" viewBox="0 0 154 154" fill="none" xmlns="http://www.w3.org/2000/svg">
<g clip-path="url(#clip0_14237_2347)">
<path d="M153.31 76.65C153.31 68.15 143.72 60.5 128.43 55.17C135.44 40.63 136.86 28.44 130.85 22.44C124.85 16.44 112.67 17.85 98.12 24.86C92.8 9.59 85.16 0 76.65 0C68.14 0 60.5 9.59 55.17 24.88C40.63 17.87 28.44 16.45 22.44 22.46C16.44 28.46 17.85 40.64 24.86 55.19C9.59 60.5 0 68.15 0 76.65C0 85.15 9.59 92.8 24.88 98.13C17.87 112.67 16.45 124.86 22.46 130.86C28.46 136.86 40.64 135.45 55.19 128.44C60.51 143.73 68.16 153.32 76.67 153.32C85.18 153.32 92.82 143.73 98.15 128.44C112.69 135.45 124.88 136.87 130.88 130.86C136.88 124.86 135.47 112.68 128.46 98.13C143.75 92.8 153.34 85.16 153.34 76.65H153.31Z" fill="#8655FD"/>
<path d="M85.5199 76.49H70.1699C66.3205 76.49 63.2 79.6106 63.2 83.46V83.47C63.2 87.3194 66.3205 90.44 70.1699 90.44H85.5199C89.3694 90.44 92.4899 87.3194 92.4899 83.47V83.46C92.4899 79.6106 89.3694 76.49 85.5199 76.49Z" fill="white"/>
<path d="M69.9299 77.73C70.2199 77.86 70.4899 78.05 70.7299 78.29C71.8199 79.38 71.8199 81.15 70.7299 82.24C69.6399 83.33 67.8699 83.33 66.7799 82.24C66.1599 81.62 65.8899 80.78 65.9799 79.96C64.2699 82.2 64.4299 85.41 66.4799 87.46C68.7099 89.69 72.3299 89.69 74.5699 87.46C76.8099 85.23 76.7999 81.61 74.5699 79.37C73.2999 78.1 71.5799 77.55 69.9199 77.73H69.9299Z" fill="#333333"/>
<path d="M121.3 76.49H105.95C102.101 76.49 98.98 79.6106 98.98 83.46V83.47C98.98 87.3194 102.101 90.44 105.95 90.44H121.3C125.149 90.44 128.27 87.3194 128.27 83.47V83.46C128.27 79.6106 125.149 76.49 121.3 76.49Z" fill="white"/>
<path d="M105.71 77.73C106 77.86 106.27 78.05 106.51 78.29C107.6 79.38 107.6 81.15 106.51 82.24C105.42 83.33 103.65 83.33 102.56 82.24C101.94 81.62 101.67 80.78 101.76 79.96C100.05 82.2 100.21 85.41 102.26 87.46C104.49 89.69 108.11 89.69 110.35 87.46C112.58 85.23 112.58 81.61 110.35 79.37C109.08 78.1 107.36 77.55 105.7 77.73H105.71Z" fill="#333333"/>
</g>
<defs>
<clipPath id="clip0_14237_2347">
<rect width="153.31" height="153.31" fill="white"/>
</clipPath>
</defs>
</svg>
