<svg width="154" height="153" viewBox="0 0 154 153" fill="none" xmlns="http://www.w3.org/2000/svg">
<g clip-path="url(#clip0_14237_2279)">
<path d="M73.04 5.08C65.98 12.14 12.19 65.17 5.09004 72.28C-6.07996 83.45 1.77004 109.4 22.62 130.25C43.47 151.1 69.43 158.95 80.59 147.78C87.61 140.76 141.48 87.64 148.54 80.58C159.71 69.41 151.86 43.46 131.01 22.61C110.16 1.76 84.2 -6.08 73.04 5.08Z" fill="#44B8A7"/>
<path d="M99.6 76.08C105.603 76.08 110.47 69.7269 110.47 61.8899C110.47 54.053 105.603 47.7 99.6 47.7C93.5966 47.7 88.73 54.053 88.73 61.8899C88.73 69.7269 93.5966 76.08 99.6 76.08Z" fill="white"/>
<path d="M96.28 48.38C91.9 50.21 88.74 55.57 88.74 61.89C88.74 68.21 91.91 73.57 96.28 75.4C100.66 73.57 103.82 68.21 103.82 61.89C103.82 55.57 100.65 50.21 96.28 48.38Z" fill="#333333"/>
<path d="M121.6 76.08C127.603 76.08 132.47 69.7269 132.47 61.8899C132.47 54.053 127.603 47.7 121.6 47.7C115.597 47.7 110.73 54.053 110.73 61.8899C110.73 69.7269 115.597 76.08 121.6 76.08Z" fill="white"/>
<path d="M118.28 48.38C113.9 50.21 110.74 55.57 110.74 61.89C110.74 68.21 113.91 73.57 118.28 75.4C122.66 73.57 125.82 68.21 125.82 61.89C125.82 55.57 122.65 50.21 118.28 48.38Z" fill="#333333"/>
</g>
<defs>
<clipPath id="clip0_14237_2279">
<rect width="153.62" height="152.87" fill="white"/>
</clipPath>
</defs>
</svg>
