<svg width="146" height="147" viewBox="0 0 146 147" fill="none" xmlns="http://www.w3.org/2000/svg">
<g clip-path="url(#clip0_14237_2383)">
<path d="M144.83 119.48C144.83 109.87 131.85 101.41 112.19 96.49C131.85 91.57 144.83 83.11 144.83 73.5C144.83 63.89 132.01 55.53 112.55 50.6C132.41 45.69 145.55 37.19 145.55 27.52C145.55 12.32 113.13 0 73.14 0C33.15 0 0.72 12.32 0.72 27.52C0.72 37.08 13.54 45.49 33 50.42C13.14 55.33 0 63.83 0 73.5C0 83.17 12.98 91.57 32.64 96.49C12.98 101.41 0 109.87 0 119.48C0 134.68 32.42 147 72.41 147C112.4 147 144.82 134.68 144.82 119.48H144.83Z" fill="#44B8A7"/>
<path d="M73.7601 64.57C78.8411 64.57 82.9601 60.451 82.9601 55.37C82.9601 50.289 78.8411 46.17 73.7601 46.17C68.679 46.17 64.5601 50.289 64.5601 55.37C64.5601 60.451 68.679 64.57 73.7601 64.57Z" fill="white"/>
<path d="M76.02 59.12C79.3392 59.12 82.03 56.4292 82.03 53.11C82.03 49.7907 79.3392 47.1 76.02 47.1C72.7008 47.1 70.01 49.7907 70.01 53.11C70.01 56.4292 72.7008 59.12 76.02 59.12Z" fill="#333333"/>
<path d="M104.76 64.57C109.841 64.57 113.96 60.451 113.96 55.37C113.96 50.289 109.841 46.17 104.76 46.17C99.679 46.17 95.5601 50.289 95.5601 55.37C95.5601 60.451 99.679 64.57 104.76 64.57Z" fill="white"/>
<path d="M107.02 59.12C110.339 59.12 113.03 56.4292 113.03 53.11C113.03 49.7907 110.339 47.1 107.02 47.1C103.701 47.1 101.01 49.7907 101.01 53.11C101.01 56.4292 103.701 59.12 107.02 59.12Z" fill="#333333"/>
</g>
<defs>
<clipPath id="clip0_14237_2383">
<rect width="145.55" height="147" fill="white"/>
</clipPath>
</defs>
</svg>
