<svg width="117" height="154" viewBox="0 0 117 154" fill="none" xmlns="http://www.w3.org/2000/svg">
<g clip-path="url(#clip0_14237_2267)">
<path d="M58.26 153.3C90.4361 153.3 116.52 118.983 116.52 76.65C116.52 34.3174 90.4361 0 58.26 0C26.0839 0 0 34.3174 0 76.65C0 118.983 26.0839 153.3 58.26 153.3Z" fill="#8655FD"/>
<path d="M51.17 32.53C48.84 31.72 45.58 34.55 42.82 39.35C40.81 34.19 38.03 30.9 35.6 31.35C32.17 31.98 30.75 39.81 32.42 48.82C33.82 56.38 36.94 62.37 39.94 63.74C39.96 63.74 39.97 63.76 39.99 63.77C39.99 63.77 40 63.77 40.01 63.77C40.09 63.81 40.17 63.85 40.26 63.88C40.38 63.92 40.5 63.95 40.63 63.97C40.97 64.04 41.31 64.05 41.65 63.99C41.86 63.95 42.06 63.88 42.26 63.79C45.38 62.67 49.23 57.32 51.69 50.27C54.7 41.61 54.48 33.66 51.19 32.52L51.17 32.53Z" fill="white"/>
<path d="M38.67 54.26C40.3876 54.26 41.78 52.0752 41.78 49.38C41.78 46.6849 40.3876 44.5 38.67 44.5C36.9524 44.5 35.56 46.6849 35.56 49.38C35.56 52.0752 36.9524 54.26 38.67 54.26Z" fill="#333333"/>
<path d="M93.76 32.53C91.43 31.72 88.17 34.55 85.41 39.35C83.4 34.19 80.62 30.9 78.19 31.35C74.76 31.98 73.34 39.81 75.01 48.82C76.41 56.38 79.53 62.37 82.53 63.74C82.55 63.74 82.56 63.76 82.58 63.77C82.58 63.77 82.59 63.77 82.6 63.77C82.68 63.81 82.76 63.85 82.85 63.88C82.97 63.92 83.09 63.95 83.22 63.97C83.56 64.04 83.9 64.05 84.24 63.99C84.45 63.95 84.65 63.88 84.85 63.79C87.97 62.67 91.82 57.32 94.28 50.27C97.29 41.61 97.07 33.66 93.78 32.52L93.76 32.53Z" fill="white"/>
<path d="M81.27 54.26C82.9876 54.26 84.38 52.0752 84.38 49.38C84.38 46.6849 82.9876 44.5 81.27 44.5C79.5524 44.5 78.16 46.6849 78.16 49.38C78.16 52.0752 79.5524 54.26 81.27 54.26Z" fill="#333333"/>
</g>
<defs>
<clipPath id="clip0_14237_2267">
<rect width="116.51" height="153.31" fill="white"/>
</clipPath>
</defs>
</svg>
