<svg width="133" height="146" viewBox="0 0 133 146" fill="none" xmlns="http://www.w3.org/2000/svg">
<g clip-path="url(#clip0_14237_2309)">
<path d="M122.37 3.35999C107.97 -2.83001 83.35 20.21 65.67 55.58C49.72 19.42 26.24 -4.74001 11.55 0.789987C-4.03997 6.64999 -3.81997 43.74 12.06 83.63C23.81 113.15 40.84 135.92 55.22 143.38C56.06 144.04 56.96 144.59 57.94 145.01C59.76 145.79 61.75 146.09 63.87 145.98C65.68 146.07 67.42 145.84 69.04 145.23C69.88 144.92 70.66 144.49 71.4 144C86.2 137.43 104.54 115.32 117.84 86.08C135.63 46.96 137.66 9.92999 122.36 3.35999H122.37Z" fill="#44BA82"/>
<path d="M50.99 67C50.99 69.36 19.28 68.85 19.28 67C19.28 58.24 26.38 51.15 35.13 51.15C43.88 51.15 50.98 58.25 50.98 67H50.99Z" fill="white"/>
<path d="M28.67 59.04C24.45 59.04 21.03 62.46 21.03 66.68C21.03 67.08 21.07 67.47 21.13 67.85C24.48 68.32 30.42 68.59 36.06 68.57C36.22 67.96 36.31 67.33 36.31 66.67C36.31 62.45 32.89 59.03 28.67 59.03V59.04Z" fill="#333333"/>
<path d="M102.23 67C102.23 69.36 70.52 68.85 70.52 67C70.52 58.24 77.62 51.15 86.37 51.15C95.12 51.15 102.22 58.25 102.22 67H102.23Z" fill="white"/>
<path d="M79.92 59.04C75.7 59.04 72.28 62.46 72.28 66.68C72.28 67.08 72.32 67.47 72.38 67.85C75.73 68.32 81.67 68.59 87.31 68.57C87.47 67.96 87.56 67.33 87.56 66.67C87.56 62.45 84.14 59.03 79.92 59.03V59.04Z" fill="#333333"/>
</g>
<defs>
<clipPath id="clip0_14237_2309">
<rect width="132.64" height="146" fill="white"/>
</clipPath>
</defs>
</svg>
