<svg width="154" height="154" viewBox="0 0 154 154" fill="none" xmlns="http://www.w3.org/2000/svg">
<g clip-path="url(#clip0_14237_2365)">
<path d="M153.31 76.65C153.31 64.21 132.77 53.59 103.89 49.42C99.71 20.54 89.1 0 76.65 0C64.2 0 53.59 20.54 49.42 49.42C20.54 53.6 0 64.21 0 76.65C0 89.09 20.54 99.71 49.42 103.88C53.59 132.77 64.21 153.3 76.65 153.3C89.09 153.3 99.71 132.76 103.88 103.88C132.77 99.71 153.3 89.09 153.3 76.65H153.31Z" fill="#44B8A7"/>
<path d="M90.19 71.42C95.271 71.42 99.39 67.301 99.39 62.22C99.39 57.139 95.271 53.02 90.19 53.02C85.109 53.02 80.99 57.139 80.99 62.22C80.99 67.301 85.109 71.42 90.19 71.42Z" fill="white"/>
<path d="M92.45 65.97C95.7692 65.97 98.46 63.2792 98.46 59.96C98.46 56.6408 95.7692 53.95 92.45 53.95C89.1308 53.95 86.44 56.6408 86.44 59.96C86.44 63.2792 89.1308 65.97 92.45 65.97Z" fill="#333333"/>
<path d="M75.19 71.42C80.271 71.42 84.39 67.301 84.39 62.22C84.39 57.139 80.271 53.02 75.19 53.02C70.109 53.02 65.99 57.139 65.99 62.22C65.99 67.301 70.109 71.42 75.19 71.42Z" fill="white"/>
<path d="M77.45 65.97C80.7692 65.97 83.46 63.2792 83.46 59.96C83.46 56.6408 80.7692 53.95 77.45 53.95C74.1308 53.95 71.44 56.6408 71.44 59.96C71.44 63.2792 74.1308 65.97 77.45 65.97Z" fill="#333333"/>
</g>
<defs>
<clipPath id="clip0_14237_2365">
<rect width="153.31" height="153.31" fill="white"/>
</clipPath>
</defs>
</svg>
