<svg width="154" height="152" viewBox="0 0 154 152" fill="none" xmlns="http://www.w3.org/2000/svg">
<g clip-path="url(#clip0_14237_2407)">
<path d="M77.95 0.880002L90.05 38.41C90.3 39.2 91.23 39.54 91.93 39.1L125.32 18.13C126.36 17.47 127.63 18.54 127.17 19.68L112.32 56.21C112.01 56.98 112.5 57.83 113.32 57.95L152.38 63.35C153.6 63.52 153.89 65.15 152.8 65.73L117.95 84.17C117.22 84.56 117.05 85.53 117.6 86.14L144.05 115.39C144.88 116.3 144.05 117.74 142.84 117.48L104.29 109.2C103.48 109.03 102.72 109.66 102.76 110.49L104.22 149.89C104.27 151.12 102.71 151.69 101.95 150.72L77.74 119.6C77.23 118.95 76.24 118.95 75.74 119.6L51.53 150.72C50.7701 151.69 49.21 151.13 49.26 149.89L50.7201 110.49C50.75 109.66 49.99 109.03 49.19 109.2L10.64 117.48C9.44005 117.74 8.61005 116.3 9.43005 115.39L35.8801 86.14C36.4401 85.53 36.26 84.55 35.53 84.17L0.680049 65.72C-0.409951 65.14 -0.119951 63.51 1.10005 63.34L40.16 57.94C40.98 57.83 41.4701 56.97 41.16 56.2L26.31 19.67C25.85 18.53 27.12 17.46 28.16 18.12L61.55 39.09C62.25 39.53 63.18 39.19 63.43 38.4L75.54 0.880002C75.92 -0.289998 77.58 -0.289998 77.96 0.880002H77.95Z" fill="#44B8A7"/>
<path d="M92.32 80.09C97.3017 80.09 101.34 74.8159 101.34 68.31C101.34 61.8041 97.3017 56.53 92.32 56.53C87.3384 56.53 83.3 61.8041 83.3 68.31C83.3 74.8159 87.3384 80.09 92.32 80.09Z" fill="white"/>
<path d="M94.86 76.77C98.4388 76.77 101.34 72.9823 101.34 68.31C101.34 63.6377 98.4388 59.85 94.86 59.85C91.2812 59.85 88.38 63.6377 88.38 68.31C88.38 72.9823 91.2812 76.77 94.86 76.77Z" fill="#333333"/>
<path d="M77.36 80.09C82.3416 80.09 86.38 74.8159 86.38 68.31C86.38 61.8041 82.3416 56.53 77.36 56.53C72.3784 56.53 68.34 61.8041 68.34 68.31C68.34 74.8159 72.3784 80.09 77.36 80.09Z" fill="white"/>
<path d="M79.9101 76.77C83.4889 76.77 86.3901 72.9823 86.3901 68.31C86.3901 63.6377 83.4889 59.85 79.9101 59.85C76.3313 59.85 73.4301 63.6377 73.4301 68.31C73.4301 72.9823 76.3313 76.77 79.9101 76.77Z" fill="#333333"/>
</g>
<defs>
<clipPath id="clip0_14237_2407">
<rect width="153.49" height="151.2" fill="white"/>
</clipPath>
</defs>
</svg>
