<svg width="126" height="126" viewBox="0 0 126 126" fill="none" xmlns="http://www.w3.org/2000/svg">
<g clip-path="url(#clip0_14237_2419)">
<path d="M121.87 4.11C112.31 -5.45 88.39 2.21 62.99 21.19C37.6 2.22 13.67 -5.44 4.10999 4.11C-5.45001 13.67 2.21999 37.59 21.19 62.99C2.21999 88.38 -5.44001 112.31 4.10999 121.87C13.66 131.43 37.59 123.77 62.99 104.79C88.38 123.77 112.31 131.43 121.87 121.87C131.43 112.31 123.76 88.39 104.79 62.99C123.77 37.6 131.43 13.67 121.87 4.11Z" fill="#6060F8"/>
<path d="M33.48 57.68C39.4833 57.68 44.35 51.3269 44.35 43.49C44.35 35.6531 39.4833 29.3 33.48 29.3C27.4766 29.3 22.61 35.6531 22.61 43.49C22.61 51.3269 27.4766 57.68 33.48 57.68Z" fill="white"/>
<path d="M30.2 40.5C30.2 38.57 31.77 37 33.7 37C34.09 37 34.45 37.08 34.8 37.19C34.1 34.91 32.4 33.3 30.41 33.3C27.8 33.3 25.68 36.07 25.68 39.48C25.68 42.89 27.8 45.66 30.41 45.66C31.66 45.66 32.79 45.03 33.63 44C31.73 43.96 30.2 42.42 30.2 40.51V40.5Z" fill="#333333"/>
<path d="M50.48 57.68C56.4833 57.68 61.35 51.3269 61.35 43.49C61.35 35.6531 56.4833 29.3 50.48 29.3C44.4766 29.3 39.61 35.6531 39.61 43.49C39.61 51.3269 44.4766 57.68 50.48 57.68Z" fill="white"/>
<path d="M47.2 40.5C47.2 38.57 48.77 37 50.7 37C51.09 37 51.45 37.08 51.8 37.19C51.1 34.91 49.4 33.3 47.41 33.3C44.8 33.3 42.68 36.07 42.68 39.48C42.68 42.89 44.8 45.66 47.41 45.66C48.66 45.66 49.79 45.03 50.63 44C48.73 43.96 47.2 42.42 47.2 40.51V40.5Z" fill="#333333"/>
</g>
<defs>
<clipPath id="clip0_14237_2419">
<rect width="125.98" height="125.98" fill="white"/>
</clipPath>
</defs>
</svg>
