<svg width="105" height="135" viewBox="0 0 105 135" fill="none" xmlns="http://www.w3.org/2000/svg">
<g clip-path="url(#clip0_14237_2255)">
<path d="M104.39 60.82H104.2V52.1C104.2 23.33 80.87 0 52.1 0C23.33 0 0 23.33 0 52.1V114.19C0 116.41 0.15 118.59 0.42 120.74V134.7H46.48C48.32 134.9 50.2 135.01 52.09 135.01C53.99 135.01 55.86 134.9 57.7 134.7H104.38V60.82H104.39Z" fill="#EB3E5B"/>
<path d="M26.76 56C31.598 56 35.52 50.8736 35.52 44.55C35.52 38.2263 31.598 33.1 26.76 33.1C21.922 33.1 18 38.2263 18 44.55C18 50.8736 21.922 56 26.76 56Z" fill="white"/>
<path d="M24.08 33.66C20.55 35.14 18 39.46 18 44.56C18 49.66 20.55 53.98 24.08 55.46C27.61 53.98 30.16 49.66 30.16 44.56C30.16 39.46 27.61 35.14 24.08 33.66Z" fill="#333333"/>
<path d="M41.28 56C46.118 56 50.04 50.8736 50.04 44.55C50.04 38.2263 46.118 33.1 41.28 33.1C36.442 33.1 32.52 38.2263 32.52 44.55C32.52 50.8736 36.442 56 41.28 56Z" fill="white"/>
<path d="M38.6 33.66C35.07 35.14 32.52 39.46 32.52 44.56C32.52 49.66 35.07 53.98 38.6 55.46C42.13 53.98 44.68 49.66 44.68 44.56C44.68 39.46 42.13 35.14 38.6 33.66Z" fill="#333333"/>
</g>
<defs>
<clipPath id="clip0_14237_2255">
<rect width="104.39" height="135" fill="white"/>
</clipPath>
</defs>
</svg>
