<svg width="154" height="154" viewBox="0 0 154 154" fill="none" xmlns="http://www.w3.org/2000/svg">
<g clip-path="url(#clip0_14237_2243)">
<path d="M118.94 135.16C146.28 107.82 160.02 77.2301 149.63 66.8401C143.1 60.3101 128.58 63.3201 111.9 73.2501C122.12 56.3201 125.3 41.5201 118.68 34.9101C112.11 28.3401 97.45 31.4301 80.65 41.5101C90.72 24.7101 93.82 10.0501 87.25 3.48007C76.86 -6.90993 46.27 6.83007 18.93 34.1701C-42.46 95.5601 60.02 194.08 118.93 135.17L118.94 135.16Z" fill="#8655FD"/>
<path d="M41.77 74.86C47.7734 74.86 52.64 68.5069 52.64 60.67C52.64 52.8331 47.7734 46.48 41.77 46.48C35.7667 46.48 30.9 52.8331 30.9 60.67C30.9 68.5069 35.7667 74.86 41.77 74.86Z" fill="white"/>
<path d="M44.29 58.16C42.36 58.16 40.79 56.59 40.79 54.66C40.79 53.07 41.85 51.75 43.3 51.32C42.02 49.41 40.35 47.96 38.46 47.16C34.08 48.99 30.92 54.35 30.92 60.67C30.92 66.99 34.09 72.35 38.46 74.18C42.84 72.35 46 66.99 46 60.67C46 59.69 45.92 58.74 45.77 57.82C45.32 58.03 44.82 58.16 44.29 58.16Z" fill="#333333"/>
<path d="M65.77 74.86C71.7734 74.86 76.64 68.5069 76.64 60.67C76.64 52.8331 71.7734 46.48 65.77 46.48C59.7667 46.48 54.9 52.8331 54.9 60.67C54.9 68.5069 59.7667 74.86 65.77 74.86Z" fill="white"/>
<path d="M68.29 58.16C66.36 58.16 64.79 56.59 64.79 54.66C64.79 53.07 65.85 51.75 67.3 51.32C66.02 49.41 64.35 47.96 62.46 47.16C58.08 48.99 54.92 54.35 54.92 60.67C54.92 66.99 58.09 72.35 62.46 74.18C66.84 72.35 70 66.99 70 60.67C70 59.69 69.92 58.74 69.77 57.82C69.32 58.03 68.82 58.16 68.29 58.16Z" fill="#333333"/>
</g>
<defs>
<clipPath id="clip0_14237_2243">
<rect width="153.1" height="153.26" fill="white"/>
</clipPath>
</defs>
</svg>
