<svg width="162" height="160" viewBox="0 0 162 160" fill="none" xmlns="http://www.w3.org/2000/svg">
<g clip-path="url(#clip0_14237_2291)">
<path d="M97.23 11.9699L101.45 25.0399L113.08 17.7399C127.28 8.82995 144.57 23.3399 138.26 38.8699L133.09 51.5899L146.69 53.4699C163.3 55.7699 167.22 77.9999 152.4 85.8399L140.26 92.2599L149.47 102.44C160.71 114.87 149.43 134.42 133.04 130.9L119.61 128.02L120.12 141.74C120.74 158.49 99.53 166.21 89.24 152.98L80.81 142.14L72.38 152.98C62.09 166.21 40.87 158.49 41.5 141.74L42.01 128.02L28.58 130.9C12.19 134.42 0.899977 114.87 12.15 102.44L21.36 92.2599L9.21998 85.8399C-5.60002 77.9999 -1.68002 55.7699 14.93 53.4699L28.53 51.5899L23.36 38.8699C17.05 23.3399 34.34 8.82995 48.54 17.7399L60.17 25.0399L64.39 11.9699C69.54 -3.98005 92.11 -3.98005 97.26 11.9699H97.23Z" fill="#EB3E5B"/>
<path d="M49.45 81.47C55.4533 81.47 60.32 75.1169 60.32 67.28C60.32 59.443 55.4533 53.09 49.45 53.09C43.4466 53.09 38.58 59.443 38.58 67.28C38.58 75.1169 43.4466 81.47 49.45 81.47Z" fill="white"/>
<path d="M51.67 66.39C47.9 62.94 43.18 61.51 39.29 62.24C38.83 63.81 38.58 65.5 38.58 67.28C38.58 75.12 43.45 81.47 49.45 81.47C52.36 81.47 54.99 79.98 56.94 77.55C57.02 73.81 55.17 69.61 51.66 66.39H51.67Z" fill="#333333"/>
<path d="M74.45 81.47C80.4533 81.47 85.32 75.1169 85.32 67.28C85.32 59.443 80.4533 53.09 74.45 53.09C68.4466 53.09 63.58 59.443 63.58 67.28C63.58 75.1169 68.4466 81.47 74.45 81.47Z" fill="white"/>
<path d="M76.67 66.39C72.9 62.94 68.18 61.51 64.29 62.24C63.83 63.81 63.58 65.5 63.58 67.28C63.58 75.12 68.45 81.47 74.45 81.47C77.36 81.47 79.99 79.98 81.94 77.55C82.02 73.81 80.17 69.61 76.66 66.39H76.67Z" fill="#333333"/>
</g>
<defs>
<clipPath id="clip0_14237_2291">
<rect width="161.6" height="159.68" fill="white"/>
</clipPath>
</defs>
</svg>
