<svg width="128" height="128" viewBox="0 0 128 128" fill="none" xmlns="http://www.w3.org/2000/svg">
<g clip-path="url(#clip0_14237_2425)">
<path d="M128 90C128 79.94 124.08 70.8 117.7 64C124.08 57.2 128 48.06 128 38C128 17.01 110.99 0 90 0C79.94 0 70.8 3.92 64 10.3C57.2 3.92 48.06 0 38 0C17.01 0 0 17.01 0 38C0 48.06 3.92 57.2 10.3 64C3.92 70.8 0 79.94 0 90C0 110.99 17.01 128 38 128C48.06 128 57.2 124.08 64 117.7C70.8 124.08 79.94 128 90 128C110.99 128 128 110.99 128 90Z" fill="#8655FD"/>
<path d="M49.6 52.5C54.681 52.5 58.8 48.381 58.8 43.3C58.8 38.219 54.681 34.1 49.6 34.1C44.519 34.1 40.4 38.219 40.4 43.3C40.4 48.381 44.519 52.5 49.6 52.5Z" fill="white"/>
<path d="M49.6 49.31C52.9193 49.31 55.61 46.6192 55.61 43.3C55.61 39.9808 52.9193 37.29 49.6 37.29C46.2808 37.29 43.59 39.9808 43.59 43.3C43.59 46.6192 46.2808 49.31 49.6 49.31Z" fill="#333333"/>
<path d="M75.6 52.5C80.681 52.5 84.8 48.381 84.8 43.3C84.8 38.219 80.681 34.1 75.6 34.1C70.519 34.1 66.4 38.219 66.4 43.3C66.4 48.381 70.519 52.5 75.6 52.5Z" fill="white"/>
<path d="M75.6 49.31C78.9192 49.31 81.61 46.6192 81.61 43.3C81.61 39.9808 78.9192 37.29 75.6 37.29C72.2807 37.29 69.59 39.9808 69.59 43.3C69.59 46.6192 72.2807 49.31 75.6 49.31Z" fill="#333333"/>
</g>
<defs>
<clipPath id="clip0_14237_2425">
<rect width="128" height="128" fill="white"/>
</clipPath>
</defs>
</svg>
