<svg width="127" height="160" viewBox="0 0 127 160" fill="none" xmlns="http://www.w3.org/2000/svg">
<g clip-path="url(#clip0_14237_2249)">
<path d="M120.9 72.2C115.06 66.36 105.36 65.5 94.34 68.77C117.25 41.45 127.43 14.18 117.22 3.97C105.34 -7.91001 70.35 7.8 39.08 39.08C7.80003 70.35 -7.91997 105.34 3.97003 117.22C10.8 124.05 25.28 121.75 42.3 112.62C32.8 129.28 31.05 145.43 39.37 153.75C51.25 165.63 79.14 157.01 101.66 134.5C124.18 111.98 132.8 84.09 120.91 72.21L120.9 72.2Z" fill="#6060F8"/>
<path d="M74.32 42.71C79.1801 42.71 83.12 38.7701 83.12 33.91C83.12 29.0499 79.1801 25.11 74.32 25.11C69.4599 25.11 65.52 29.0499 65.52 33.91C65.52 38.7701 69.4599 42.71 74.32 42.71Z" fill="white"/>
<path d="M85.32 31.7101C90.1801 31.7101 94.12 27.7702 94.12 22.9101C94.12 18.05 90.1801 14.1101 85.32 14.1101C80.4599 14.1101 76.52 18.05 76.52 22.9101C76.52 27.7702 80.4599 31.7101 85.32 31.7101Z" fill="white"/>
<path d="M83.45 21.34C83.56 21.11 83.7 20.89 83.89 20.7C84.76 19.83 86.17 19.83 87.04 20.7C87.91 21.57 87.91 22.98 87.04 23.85C86.54 24.35 85.87 24.56 85.22 24.49C87.01 25.85 89.58 25.72 91.21 24.09C92.99 22.31 92.99 19.42 91.21 17.63C89.43 15.85 86.54 15.85 84.75 17.63C83.74 18.64 83.3 20.02 83.44 21.34H83.45Z" fill="#333333"/>
<path d="M72.45 32.34C72.56 32.11 72.7 31.89 72.89 31.7C73.76 30.83 75.17 30.83 76.04 31.7C76.91 32.57 76.91 33.98 76.04 34.85C75.54 35.35 74.87 35.56 74.22 35.49C76.01 36.85 78.58 36.72 80.21 35.09C81.99 33.31 81.99 30.42 80.21 28.63C78.43 26.85 75.54 26.85 73.75 28.63C72.74 29.64 72.3 31.02 72.44 32.34H72.45Z" fill="#333333"/>
</g>
<defs>
<clipPath id="clip0_14237_2249">
<rect width="126.24" height="159.08" fill="white"/>
</clipPath>
</defs>
</svg>
