<svg width="150" height="150" viewBox="0 0 150 150" fill="none" xmlns="http://www.w3.org/2000/svg">
<g clip-path="url(#clip0_14237_2237)">
<path d="M98.71 18.1699C110.09 12.7699 120.54 13.7299 129.04 23.0799C136.63 31.4299 137.07 41.1199 131.94 51.4999C142.92 55.4999 149.97 62.9699 149.98 75.0199C150 87.0899 143.28 94.7599 131.83 98.7399C137.05 109.77 136.34 120.1 127.38 128.63C118.92 136.69 108.97 137.13 98.43 132.01C94.35 143.24 86.75 150.1 74.68 150.02C62.74 149.94 55.19 143.18 51.25 131.9C40.45 136.9 30.25 136.44 21.75 127.8C13.37 119.28 12.75 109.2 18 98.4799C6.37001 94.1699 -0.459995 86.2199 0.0200053 73.7499C0.470005 62.2399 7.23001 54.9799 18.14 51.2699C13.07 40.4199 13.59 30.2299 22.22 21.7299C30.73 13.3599 40.82 12.7299 51.52 17.9999C55.7 6.7199 63.28 -0.140095 75.39 -9.46785e-05C87.33 0.139905 94.88 6.8799 98.71 18.1699Z" fill="#EB3E5B"/>
<path d="M95.5 66.3H95.48C91 61.43 85.24 58.98 79.46 59.01C79.46 59.01 79.45 59.01 79.44 59.01C79.44 59.01 79.43 59.01 79.42 59.01C73.64 58.97 67.88 61.43 63.4 66.3H63.38V66.32H63.4C67.88 71.19 73.64 73.64 79.42 73.61C79.42 73.61 79.43 73.61 79.44 73.61C79.44 73.61 79.45 73.61 79.46 73.61C85.24 73.65 91 71.19 95.48 66.32H95.5V66.3Z" fill="white"/>
<path d="M87.7607 67.4754C88.4065 64.7394 86.712 61.998 83.976 61.3523C81.2401 60.7065 78.4987 62.401 77.8529 65.1369C77.2072 67.8729 78.9016 70.6143 81.6376 71.26C84.3736 71.9058 87.115 70.2113 87.7607 67.4754Z" fill="#333333"/>
<path d="M131.5 66.3H131.48C127 61.43 121.24 58.98 115.46 59.01C115.46 59.01 115.45 59.01 115.44 59.01C115.44 59.01 115.43 59.01 115.42 59.01C109.64 58.97 103.88 61.43 99.4 66.3H99.38V66.32H99.4C103.88 71.19 109.64 73.64 115.42 73.61C115.42 73.61 115.43 73.61 115.44 73.61C115.44 73.61 115.45 73.61 115.46 73.61C121.24 73.65 127 71.19 131.48 66.32H131.5V66.3Z" fill="white"/>
<path d="M123.75 67.4781C124.396 64.7421 122.702 62.0007 119.966 61.355C117.23 60.7092 114.488 62.4037 113.842 65.1396C113.197 67.8756 114.891 70.617 117.627 71.2627C120.363 71.9085 123.104 70.214 123.75 67.4781Z" fill="#333333"/>
</g>
<defs>
<clipPath id="clip0_14237_2237">
<rect width="149.98" height="150" fill="white"/>
</clipPath>
</defs>
</svg>
