<svg width="150" height="150" viewBox="0 0 150 150" fill="none" xmlns="http://www.w3.org/2000/svg">
<g clip-path="url(#clip0_14237_2359)">
<path d="M138.41 47.9C131.3 40.79 122.06 37.09 112.74 36.8C112.45 27.48 108.75 18.25 101.64 11.13C86.8 -3.71 62.74 -3.71 47.9 11.13C40.79 18.24 37.09 27.48 36.8 36.8C27.48 37.09 18.25 40.79 11.13 47.9C-3.71 62.74 -3.71 86.8 11.13 101.64C18.24 108.75 27.48 112.45 36.8 112.74C37.09 122.06 40.79 131.29 47.9 138.41C62.74 153.25 86.8 153.25 101.64 138.41C108.75 131.3 112.45 122.06 112.74 112.74C122.06 112.45 131.29 108.75 138.41 101.64C153.25 86.8 153.25 62.74 138.41 47.9Z" fill="#6060F8"/>
<path d="M107.26 73.16C112.12 73.16 116.06 69.2201 116.06 64.36C116.06 59.4999 112.12 55.56 107.26 55.56C102.4 55.56 98.46 59.4999 98.46 64.36C98.46 69.2201 102.4 73.16 107.26 73.16Z" fill="white"/>
<path d="M109.69 64.15C109.78 64.39 109.83 64.65 109.83 64.92C109.83 66.15 108.83 67.15 107.6 67.15C106.37 67.15 105.37 66.15 105.37 64.92C105.37 64.22 105.7 63.59 106.2 63.18C103.97 63.48 102.25 65.39 102.25 67.7C102.25 70.22 104.29 72.27 106.82 72.27C109.35 72.27 111.39 70.23 111.39 67.7C111.39 66.27 110.73 64.99 109.69 64.15Z" fill="#333333"/>
<path d="M86.26 73.16C91.1201 73.16 95.06 69.2201 95.06 64.36C95.06 59.4999 91.1201 55.56 86.26 55.56C81.3999 55.56 77.46 59.4999 77.46 64.36C77.46 69.2201 81.3999 73.16 86.26 73.16Z" fill="white"/>
<path d="M88.69 64.15C88.78 64.39 88.83 64.65 88.83 64.92C88.83 66.15 87.83 67.15 86.6 67.15C85.37 67.15 84.37 66.15 84.37 64.92C84.37 64.22 84.7 63.59 85.2 63.18C82.97 63.48 81.25 65.39 81.25 67.7C81.25 70.22 83.29 72.27 85.82 72.27C88.35 72.27 90.39 70.23 90.39 67.7C90.39 66.27 89.73 64.99 88.69 64.15Z" fill="#333333"/>
</g>
<defs>
<clipPath id="clip0_14237_2359">
<rect width="149.54" height="149.54" fill="white"/>
</clipPath>
</defs>
</svg>
