<svg width="173" height="173" viewBox="0 0 173 173" fill="none" xmlns="http://www.w3.org/2000/svg">
<g clip-path="url(#clip0_14237_2335)">
<path d="M163.89 77.92H117.48C117.48 77.92 117.42 77.86 117.46 77.84L157.89 54.5C161.87 52.2 163.24 47.11 160.94 43.13C158.64 39.15 153.55 37.78 149.57 40.08L113.07 61.15C113.07 61.15 112.98 61.13 113.01 61.09L136.37 26.01C138.92 22.18 137.88 17.02 134.06 14.47C130.23 11.92 125.07 12.96 122.52 16.78L94.66 58.61C94.66 58.61 94.58 58.63 94.58 58.58V8.60003C94.58 3.63003 90.5 -0.389975 85.55 0.0200249C81.28 0.380025 77.93 3.96002 77.93 8.32002V57.55C77.93 57.55 77.87 57.61 77.85 57.57L51.38 16.06C48.91 12.18 43.76 11.05 39.89 13.52C36.01 15.99 34.88 21.14 37.35 25.01L61.7 63.2C61.7 63.2 61.68 63.29 61.64 63.26L21.91 41.51C17.88 39.3 12.82 40.78 10.61 44.81C8.39999 48.84 9.87999 53.9 13.91 56.11L53.57 77.82C53.57 77.82 53.6 77.91 53.55 77.91H8.59999C3.62999 77.92 -0.390006 82 0.0299941 86.96C0.389994 91.23 3.96999 94.58 8.31999 94.58H55.01C55.01 94.58 55.07 94.64 55.03 94.66L14.6 118C10.62 120.3 9.24999 125.39 11.55 129.37C13.85 133.35 18.94 134.72 22.92 132.42L59.42 111.35C59.42 111.35 59.51 111.37 59.48 111.41L36.12 146.49C33.57 150.32 34.61 155.48 38.43 158.03C42.26 160.58 47.42 159.54 49.97 155.72L77.83 113.89C77.83 113.89 77.91 113.87 77.91 113.92V163.9C77.91 168.87 81.99 172.89 86.94 172.48C91.21 172.12 94.56 168.54 94.56 164.19V114.96C94.56 114.96 94.62 114.9 94.64 114.94L120.96 156.21C123.63 160.4 129.23 161.6 133.19 158.58C136.59 155.98 137.5 151.17 135.15 147.49L110.8 109.3C110.8 109.3 110.82 109.21 110.86 109.24L150.59 130.99C154.62 133.2 159.68 131.72 161.89 127.69C164.1 123.66 162.62 118.6 158.59 116.39L118.93 94.68C118.93 94.68 118.9 94.59 118.95 94.59H164.16C168.52 94.59 172.1 91.24 172.46 86.97C172.88 82.01 168.86 77.94 163.88 77.94L163.89 77.92Z" fill="#8655FD"/>
<path d="M87.65 80.91C92.1621 80.91 95.82 77.2521 95.82 72.7399C95.82 68.2278 92.1621 64.5699 87.65 64.5699C83.1378 64.5699 79.48 68.2278 79.48 72.7399C79.48 77.2521 83.1378 80.91 87.65 80.91Z" fill="white"/>
<path d="M89.75 73.44C91.2909 73.44 92.54 72.1909 92.54 70.65C92.54 69.1091 91.2909 67.86 89.75 67.86C88.2091 67.86 86.96 69.1091 86.96 70.65C86.96 72.1909 88.2091 73.44 89.75 73.44Z" fill="#333333"/>
<path d="M103.77 80.91C108.282 80.91 111.94 77.2521 111.94 72.7399C111.94 68.2278 108.282 64.5699 103.77 64.5699C99.2578 64.5699 95.6 68.2278 95.6 72.7399C95.6 77.2521 99.2578 80.91 103.77 80.91Z" fill="white"/>
<path d="M105.86 73.44C107.401 73.44 108.65 72.1909 108.65 70.65C108.65 69.1091 107.401 67.86 105.86 67.86C104.319 67.86 103.07 69.1091 103.07 70.65C103.07 72.1909 104.319 73.44 105.86 73.44Z" fill="#333333"/>
</g>
<defs>
<clipPath id="clip0_14237_2335">
<rect width="172.5" height="172.5" fill="white"/>
</clipPath>
</defs>
</svg>
