<svg width="156" height="118" viewBox="0 0 156 118" fill="none" xmlns="http://www.w3.org/2000/svg">
<g clip-path="url(#clip0_14237_2273)">
<path d="M155.88 58.96C155.88 50.32 146.13 42.54 130.59 37.12C137.72 22.33 139.16 9.95 133.06 3.84C124.11 -5.11 101.72 2.07 77.95 19.83C54.17 2.08 31.77 -5.09 22.83 3.85C16.73 9.95 18.16 22.34 25.29 37.13C9.75 42.54 0 50.32 0 58.96C0 67.6 9.75 75.38 25.29 80.8C18.16 95.59 16.72 107.97 22.83 114.08C31.78 123.03 54.17 115.85 77.94 98.09C101.71 115.86 124.11 123.03 133.05 114.08C139.15 107.98 137.72 95.59 130.58 80.8C146.12 75.39 155.87 67.61 155.87 58.96H155.88Z" fill="#EB3E5B"/>
<path d="M75.96 58.3301C81.041 58.3301 85.16 54.2111 85.16 49.1301C85.16 44.049 81.041 39.9301 75.96 39.9301C70.879 39.9301 66.76 44.049 66.76 49.1301C66.76 54.2111 70.879 58.3301 75.96 58.3301Z" fill="white"/>
<path d="M73.7 57.4C77.0192 57.4 79.71 54.7092 79.71 51.39C79.71 48.0708 77.0192 45.38 73.7 45.38C70.3808 45.38 67.69 48.0708 67.69 51.39C67.69 54.7092 70.3808 57.4 73.7 57.4Z" fill="#333333"/>
<path d="M96.96 58.3301C102.041 58.3301 106.16 54.2111 106.16 49.1301C106.16 44.049 102.041 39.9301 96.96 39.9301C91.879 39.9301 87.76 44.049 87.76 49.1301C87.76 54.2111 91.879 58.3301 96.96 58.3301Z" fill="white"/>
<path d="M94.7 57.4C98.0192 57.4 100.71 54.7092 100.71 51.39C100.71 48.0708 98.0192 45.38 94.7 45.38C91.3808 45.38 88.69 48.0708 88.69 51.39C88.69 54.7092 91.3808 57.4 94.7 57.4Z" fill="#333333"/>
</g>
<defs>
<clipPath id="clip0_14237_2273">
<rect width="155.88" height="117.93" fill="white"/>
</clipPath>
</defs>
</svg>
