<svg width="155" height="146" viewBox="0 0 155 146" fill="none" xmlns="http://www.w3.org/2000/svg">
<g clip-path="url(#clip0_14237_2377)">
<path d="M154.66 76.95C154.66 34.87 141.7 0.76 125.71 0.76C115.66 0.76 106.8 14.25 101.61 34.72C96.45 13.83 87.51 0 77.33 0C67.15 0 58.32 13.66 53.14 34.34C47.96 13.66 39.07 0 28.95 0C12.96 0 0 34.11 0 76.19C0 170.66 154.66 167.62 154.66 76.95Z" fill="#6060F8"/>
<path d="M38.83 101.7C44.8333 101.7 49.7 95.3469 49.7 87.51C49.7 79.6731 44.8333 73.32 38.83 73.32C32.8266 73.32 27.96 79.6731 27.96 87.51C27.96 95.3469 32.8266 101.7 38.83 101.7Z" fill="white"/>
<path d="M41.05 86.63C37.28 83.18 32.56 81.75 28.67 82.48C28.21 84.05 27.96 85.74 27.96 87.52C27.96 95.36 32.83 101.71 38.83 101.71C41.74 101.71 44.37 100.22 46.32 97.79C46.4 94.05 44.55 89.85 41.04 86.63H41.05Z" fill="#333333"/>
<path d="M67.83 101.7C73.8333 101.7 78.7 95.3469 78.7 87.51C78.7 79.6731 73.8333 73.32 67.83 73.32C61.8266 73.32 56.96 79.6731 56.96 87.51C56.96 95.3469 61.8266 101.7 67.83 101.7Z" fill="white"/>
<path d="M70.05 86.63C66.28 83.18 61.56 81.75 57.67 82.48C57.21 84.05 56.96 85.74 56.96 87.52C56.96 95.36 61.83 101.71 67.83 101.71C70.74 101.71 73.37 100.22 75.32 97.79C75.4 94.05 73.55 89.85 70.04 86.63H70.05Z" fill="#333333"/>
</g>
<defs>
<clipPath id="clip0_14237_2377">
<rect width="154.66" height="146" fill="white"/>
</clipPath>
</defs>
</svg>
