<svg width="137" height="140" viewBox="0 0 137 140" fill="none" xmlns="http://www.w3.org/2000/svg">
<g clip-path="url(#clip0_14237_2413)">
<path d="M112.55 140H23.88C10.69 140 0 129.31 0 116.12V52.22C0 44.06 4.17 36.46 11.05 32.08L55.55 3.73999C63.39 -1.26001 73.43 -1.24001 81.26 3.76999L125.43 32.06C132.28 36.45 136.43 44.03 136.43 52.17V116.12C136.43 129.31 125.74 140 112.55 140Z" fill="#44BA82"/>
<path d="M59.72 58.88H59.7C54.38 53.1 47.55 50.19 40.69 50.23C40.69 50.23 40.67 50.23 40.66 50.23C40.66 50.23 40.64 50.23 40.63 50.23C33.77 50.19 26.94 53.1 21.62 58.88H21.6H21.61L21.6 58.9H21.62C26.94 64.68 33.77 67.59 40.63 67.55C40.63 67.55 40.65 67.55 40.66 67.55C40.66 67.55 40.68 67.55 40.69 67.55C47.55 67.59 54.38 64.68 59.7 58.9H59.72H59.71L59.72 58.88Z" fill="white"/>
<path d="M47.2831 60.4592C48.1458 56.8041 45.8821 53.1417 42.227 52.279C38.5719 51.4164 34.9095 53.6801 34.0468 57.3352C33.1841 60.9903 35.4478 64.6527 39.1029 65.5154C42.758 66.3781 46.4204 64.1143 47.2831 60.4592Z" fill="#333333"/>
<path d="M113.72 58.88H113.7C108.38 53.1 101.55 50.19 94.69 50.23C94.69 50.23 94.67 50.23 94.66 50.23C94.66 50.23 94.64 50.23 94.63 50.23C87.77 50.19 80.94 53.1 75.62 58.88H75.6H75.61L75.6 58.9H75.62C80.94 64.68 87.77 67.59 94.63 67.55C94.63 67.55 94.65 67.55 94.66 67.55C94.66 67.55 94.68 67.55 94.69 67.55C101.55 67.59 108.38 64.68 113.7 58.9H113.72H113.71L113.72 58.88Z" fill="white"/>
<path d="M101.277 60.4532C102.14 56.7981 99.8765 53.1357 96.2213 52.2731C92.5662 51.4104 88.9038 53.6741 88.0412 57.3292C87.1785 60.9843 89.4422 64.6467 93.0973 65.5094C96.7524 66.3721 100.415 64.1084 101.277 60.4532Z" fill="#333333"/>
</g>
<defs>
<clipPath id="clip0_14237_2413">
<rect width="136.43" height="140" fill="white"/>
</clipPath>
</defs>
</svg>
