<svg width="129" height="129" viewBox="0 0 129 129" fill="none" xmlns="http://www.w3.org/2000/svg">
<g clip-path="url(#clip0_14237_2389)">
<path d="M124.14 124.14C129.01 119.27 129.5 110.75 126.36 100.2C119.38 76.7602 119.38 51.5702 126.36 28.1302C129.5 17.5902 129.01 9.06017 124.14 4.20017C119.27 -0.659835 110.75 -1.15983 100.2 1.98017C76.7602 8.96017 51.5702 8.96017 28.1302 1.98017C17.5902 -1.15983 9.07017 -0.669835 4.20017 4.20017C-0.669835 9.07017 -1.15983 17.5902 1.98017 28.1302C8.96017 51.5702 8.96017 76.7602 1.98017 100.2C-1.15983 110.74 -0.669835 119.27 4.20017 124.14C9.07017 129.01 17.5902 129.5 28.1302 126.36C51.5702 119.38 76.7602 119.38 100.2 126.36C110.74 129.5 119.27 129.01 124.14 124.14Z" fill="#44B8A7"/>
<path d="M87.86 46.68C92.9411 46.68 97.06 42.561 97.06 37.48C97.06 32.399 92.9411 28.28 87.86 28.28C82.779 28.28 78.66 32.399 78.66 37.48C78.66 42.561 82.779 46.68 87.86 46.68Z" fill="white"/>
<path d="M94.37 30.97C92.02 28.62 88.22 28.62 85.87 30.97C85.47 31.37 85.17 31.81 84.91 32.28C85.24 32.18 85.57 32.11 85.93 32.11C87.86 32.11 89.43 33.68 89.43 35.61C89.43 37.54 87.86 39.11 85.93 39.11C85.8 39.11 85.67 39.09 85.54 39.07C85.65 39.2 85.74 39.34 85.87 39.47C88.22 41.82 92.02 41.82 94.37 39.47C96.72 37.12 96.72 33.32 94.37 30.97Z" fill="#333333"/>
<path d="M64.86 46.68C69.941 46.68 74.06 42.561 74.06 37.48C74.06 32.399 69.941 28.28 64.86 28.28C59.779 28.28 55.66 32.399 55.66 37.48C55.66 42.561 59.779 46.68 64.86 46.68Z" fill="white"/>
<path d="M71.37 30.97C69.02 28.62 65.22 28.62 62.87 30.97C62.47 31.37 62.17 31.81 61.91 32.28C62.24 32.18 62.57 32.11 62.93 32.11C64.86 32.11 66.43 33.68 66.43 35.61C66.43 37.54 64.86 39.11 62.93 39.11C62.8 39.11 62.67 39.09 62.54 39.07C62.65 39.2 62.74 39.34 62.87 39.47C65.22 41.82 69.02 41.82 71.37 39.47C73.72 37.12 73.72 33.32 71.37 30.97Z" fill="#333333"/>
</g>
<defs>
<clipPath id="clip0_14237_2389">
<rect width="128.34" height="128.34" fill="white"/>
</clipPath>
</defs>
</svg>
