<svg width="155" height="146" viewBox="0 0 155 146" fill="none" xmlns="http://www.w3.org/2000/svg">
<g clip-path="url(#clip0_14237_2431)">
<path d="M154.66 76.95C154.66 34.87 141.7 0.76 125.71 0.76C115.66 0.76 106.8 14.25 101.61 34.72C96.45 13.83 87.51 0 77.33 0C67.15 0 58.32 13.66 53.14 34.34C47.96 13.66 39.07 0 28.95 0C12.96 0 0 34.11 0 76.19C0 170.66 154.66 167.62 154.66 76.95Z" fill="#EB3E5B"/>
<path d="M116.87 101.7C110.867 101.7 106 95.3469 106 87.51C106 79.6731 110.867 73.32 116.87 73.32C122.873 73.32 127.74 79.6731 127.74 87.51C127.74 95.3469 122.873 101.7 116.87 101.7Z" fill="white"/>
<path d="M114.65 86.63C118.42 83.18 123.14 81.75 127.03 82.48C127.49 84.05 127.74 85.74 127.74 87.52C127.74 95.36 122.87 101.71 116.87 101.71C113.96 101.71 111.33 100.22 109.38 97.79C109.3 94.05 111.15 89.85 114.66 86.63H114.65Z" fill="#333333"/>
<path d="M87.87 101.7C81.8667 101.7 77 95.3469 77 87.51C77 79.6731 81.8667 73.32 87.87 73.32C93.8733 73.32 98.74 79.6731 98.74 87.51C98.74 95.3469 93.8733 101.7 87.87 101.7Z" fill="white"/>
<path d="M85.65 86.63C89.42 83.18 94.14 81.75 98.03 82.48C98.49 84.05 98.74 85.74 98.74 87.52C98.74 95.36 93.87 101.71 87.87 101.71C84.96 101.71 82.33 100.22 80.38 97.79C80.3 94.05 82.15 89.85 85.66 86.63H85.65Z" fill="#333333"/>
</g>
<defs>
<clipPath id="clip0_14237_2431">
<rect width="154.66" height="146" fill="white"/>
</clipPath>
</defs>
</svg>
