<svg width="148" height="147" viewBox="0 0 148 147" fill="none" xmlns="http://www.w3.org/2000/svg">
<g clip-path="url(#clip0_14237_2297)">
<path d="M119.95 0.73C110.3 0.73 101.81 13.76 96.87 33.5C91.93 13.76 83.44 0.73 73.78 0.73C64.12 0.73 55.74 13.6 50.79 33.13C45.87 13.19 37.33 0 27.62 0C12.37 0 0 32.55 0 72.69C0 112.83 12.37 145.38 27.62 145.38C37.21 145.38 45.66 132.51 50.61 112.98C55.54 132.92 64.07 146.11 73.78 146.11C83.49 146.11 91.92 133.08 96.86 113.34C101.8 133.07 110.29 146.11 119.94 146.11C135.2 146.11 147.56 113.56 147.56 73.42C147.56 33.28 135.2 0.73 119.95 0.73Z" fill="#8655FD"/>
<path d="M78.29 44.58H56.77C51.3686 44.58 46.99 48.9586 46.99 54.36C46.99 59.7613 51.3686 64.14 56.77 64.14H78.29C83.6913 64.14 88.07 59.7613 88.07 54.36C88.07 48.9586 83.6913 44.58 78.29 44.58Z" fill="white"/>
<path d="M86.43 53.45C86.24 53.86 85.99 54.24 85.65 54.57C84.12 56.1 81.65 56.1 80.12 54.57C78.59 53.04 78.59 50.57 80.12 49.04C80.99 48.17 82.17 47.8 83.31 47.92C80.17 45.52 75.66 45.75 72.79 48.63C69.66 51.76 69.66 56.84 72.79 59.97C75.92 63.1 81 63.1 84.13 59.97C85.91 58.19 86.68 55.78 86.43 53.45Z" fill="#333333"/>
<path d="M132.29 44.58H110.77C105.369 44.58 100.99 48.9586 100.99 54.36C100.99 59.7613 105.369 64.14 110.77 64.14H132.29C137.691 64.14 142.07 59.7613 142.07 54.36C142.07 48.9586 137.691 44.58 132.29 44.58Z" fill="white"/>
<path d="M140.43 53.45C140.24 53.86 139.99 54.24 139.65 54.57C138.12 56.1 135.65 56.1 134.12 54.57C132.59 53.04 132.59 50.57 134.12 49.04C134.99 48.17 136.17 47.8 137.31 47.92C134.17 45.52 129.66 45.75 126.79 48.63C123.66 51.76 123.66 56.84 126.79 59.97C129.92 63.1 135 63.1 138.13 59.97C139.91 58.19 140.68 55.78 140.43 53.45Z" fill="#333333"/>
</g>
<defs>
<clipPath id="clip0_14237_2297">
<rect width="147.57" height="146.12" fill="white"/>
</clipPath>
</defs>
</svg>
