<svg width="167" height="136" viewBox="0 0 167 136" fill="none" xmlns="http://www.w3.org/2000/svg">
<g clip-path="url(#clip0_14237_2303)">
<path d="M116.35 0H50.15C40.72 0 32 5.03 27.29 13.2L3.54 54.33C-1.18 62.5 -1.18 72.56 3.54 80.73L27.28 121.86C32 130.03 40.71 135.06 50.14 135.06H116.34C125.77 135.06 134.49 130.03 139.2 121.86L162.94 80.73C167.66 72.56 167.66 62.5 162.94 54.33L139.2 13.2C134.48 5.03 125.77 0 116.34 0L116.35 0Z" fill="#EB3E5B"/>
<path d="M95.46 33.51C92.83 32.59 89.17 35.79 86.05 41.2C83.79 35.38 80.65 31.68 77.92 32.19C74.06 32.9 72.45 41.72 74.33 51.88C75.91 60.39 79.43 67.15 82.8 68.69C82.82 68.7 82.84 68.71 82.86 68.72C82.86 68.72 82.88 68.72 82.88 68.73C82.97 68.77 83.06 68.82 83.16 68.85C83.3 68.9 83.43 68.93 83.57 68.96C83.96 69.04 84.34 69.06 84.72 68.99C84.96 68.95 85.18 68.87 85.4 68.77C88.92 67.51 93.25 61.48 96.02 53.53C99.42 43.77 99.16 34.82 95.46 33.53V33.51Z" fill="white"/>
<path d="M90.83 64.25C92.86 61.53 94.81 57.8 96.31 53.51C97.36 50.49 98.06 47.54 98.42 44.88C97.28 43.09 95.81 42 94.2 42C90.61 42 87.7 47.37 87.7 54C87.7 58.35 88.96 62.14 90.83 64.25Z" fill="#333333"/>
<path d="M135.46 33.51C132.83 32.59 129.17 35.79 126.05 41.2C123.79 35.38 120.65 31.68 117.92 32.19C114.06 32.9 112.45 41.72 114.33 51.88C115.91 60.39 119.43 67.15 122.8 68.69C122.82 68.7 122.84 68.71 122.86 68.72C122.86 68.72 122.88 68.72 122.88 68.73C122.97 68.77 123.06 68.82 123.16 68.85C123.3 68.9 123.43 68.93 123.57 68.96C123.96 69.04 124.34 69.06 124.72 68.99C124.96 68.95 125.18 68.87 125.4 68.77C128.92 67.51 133.25 61.48 136.02 53.53C139.42 43.77 139.16 34.82 135.46 33.53V33.51Z" fill="white"/>
<path d="M130.83 64.25C132.86 61.53 134.81 57.8 136.31 53.51C137.36 50.49 138.06 47.54 138.42 44.88C137.28 43.09 135.81 42 134.2 42C130.61 42 127.7 47.37 127.7 54C127.7 58.35 128.96 62.14 130.83 64.25Z" fill="#333333"/>
</g>
<defs>
<clipPath id="clip0_14237_2303">
<rect width="166.5" height="135.06" fill="white"/>
</clipPath>
</defs>
</svg>
