<svg width="137" height="129" viewBox="0 0 137 129" fill="none" xmlns="http://www.w3.org/2000/svg">
<g clip-path="url(#clip0_14237_2395)">
<path d="M136.75 128.78C127.05 53.89 100.11 0 68.38 0C36.65 0 9.7 53.89 0 128.78H136.75Z" fill="#44B8A7"/>
<path d="M74.98 81.89C80.9833 81.89 85.85 75.5369 85.85 67.7C85.85 59.8631 80.9833 53.51 74.98 53.51C68.9767 53.51 64.11 59.8631 64.11 67.7C64.11 75.5369 68.9767 81.89 74.98 81.89Z" fill="white"/>
<path d="M78.05 57.52C77.3 57.52 76.58 57.67 75.89 57.92C77.37 58.33 78.46 59.67 78.46 61.28C78.46 63.21 76.89 64.78 74.96 64.78C73.3 64.78 71.91 63.62 71.56 62.06C70.74 63.67 70.25 65.61 70.25 67.7C70.25 73.32 73.74 77.88 78.05 77.88C82.36 77.88 85.85 73.32 85.85 67.7C85.85 62.08 82.36 57.52 78.05 57.52Z" fill="#333333"/>
<path d="M99.98 81.89C105.983 81.89 110.85 75.5369 110.85 67.7C110.85 59.8631 105.983 53.51 99.98 53.51C93.9767 53.51 89.11 59.8631 89.11 67.7C89.11 75.5369 93.9767 81.89 99.98 81.89Z" fill="white"/>
<path d="M103.05 57.52C102.3 57.52 101.58 57.67 100.89 57.92C102.37 58.33 103.46 59.67 103.46 61.28C103.46 63.21 101.89 64.78 99.96 64.78C98.3 64.78 96.91 63.62 96.56 62.06C95.74 63.67 95.25 65.61 95.25 67.7C95.25 73.32 98.74 77.88 103.05 77.88C107.36 77.88 110.85 73.32 110.85 67.7C110.85 62.08 107.36 57.52 103.05 57.52Z" fill="#333333"/>
</g>
<defs>
<clipPath id="clip0_14237_2395">
<rect width="136.75" height="128.78" fill="white"/>
</clipPath>
</defs>
</svg>
