<svg width="172" height="91" viewBox="0 0 172 91" fill="none" xmlns="http://www.w3.org/2000/svg">
<g clip-path="url(#clip0_14237_2261)">
<path d="M85.69 90.46C133.015 90.46 171.38 70.2098 171.38 45.23C171.38 20.2502 133.015 0 85.69 0C38.3647 0 0 20.2502 0 45.23C0 70.2098 38.3647 90.46 85.69 90.46Z" fill="#6060F8"/>
<path d="M64.37 62.8C70.3733 62.8 75.24 56.447 75.24 48.61C75.24 40.7731 70.3733 34.42 64.37 34.42C58.3667 34.42 53.5 40.7731 53.5 48.61C53.5 56.447 58.3667 62.8 64.37 62.8Z" fill="white"/>
<path d="M66.59 47.73C66.18 47.35 65.75 47.01 65.32 46.68C64.86 48.08 63.56 49.1 62.01 49.1C60.08 49.1 58.51 47.53 58.51 45.6C58.51 44.91 58.72 44.26 59.07 43.72C57.4 43.35 55.74 43.29 54.22 43.58C53.76 45.15 53.51 46.84 53.51 48.62C53.51 56.46 58.38 62.81 64.38 62.81C67.29 62.81 69.92 61.32 71.87 58.89C71.95 55.15 70.1 50.95 66.59 47.73Z" fill="#333333"/>
<path d="M37.37 62.8C43.3733 62.8 48.24 56.447 48.24 48.61C48.24 40.7731 43.3733 34.42 37.37 34.42C31.3667 34.42 26.5 40.7731 26.5 48.61C26.5 56.447 31.3667 62.8 37.37 62.8Z" fill="white"/>
<path d="M39.59 47.73C39.18 47.35 38.75 47.01 38.32 46.68C37.86 48.08 36.56 49.1 35.01 49.1C33.08 49.1 31.51 47.53 31.51 45.6C31.51 44.91 31.72 44.26 32.07 43.72C30.4 43.35 28.74 43.29 27.22 43.58C26.76 45.15 26.51 46.84 26.51 48.62C26.51 56.46 31.38 62.81 37.38 62.81C40.29 62.81 42.92 61.32 44.87 58.89C44.95 55.15 43.1 50.95 39.59 47.73Z" fill="#333333"/>
</g>
<defs>
<clipPath id="clip0_14237_2261">
<rect width="171.38" height="90.45" fill="white"/>
</clipPath>
</defs>
</svg>
