<svg width="156" height="147" viewBox="0 0 156 147" fill="none" xmlns="http://www.w3.org/2000/svg">
<g clip-path="url(#clip0_14237_2371)">
<path d="M0 69.4702C0 111.81 13.04 146.12 29.13 146.12C39.24 146.12 48.15 132.55 53.37 111.95C58.56 132.97 67.56 146.88 77.8 146.88C88.04 146.88 96.93 133.14 102.14 112.33C107.35 133.14 116.3 146.88 126.48 146.88C142.57 146.88 155.61 112.56 155.61 70.2302C155.61 -24.8098 0 -21.7498 0 69.4702Z" fill="#44BA82"/>
<path d="M71.87 73.6C77.8733 73.6 82.74 67.2469 82.74 59.41C82.74 51.573 77.8733 45.22 71.87 45.22C65.8667 45.22 61 51.573 61 59.41C61 67.2469 65.8667 73.6 71.87 73.6Z" fill="white"/>
<path d="M74.09 58.52C70.32 55.07 65.6 53.64 61.71 54.37C61.25 55.94 61 57.63 61 59.41C61 67.25 65.87 73.6 71.87 73.6C74.78 73.6 77.41 72.11 79.36 69.68C79.44 65.94 77.59 61.74 74.08 58.52H74.09Z" fill="#333333"/>
<path d="M120.87 73.6C126.873 73.6 131.74 67.2469 131.74 59.41C131.74 51.573 126.873 45.22 120.87 45.22C114.867 45.22 110 51.573 110 59.41C110 67.2469 114.867 73.6 120.87 73.6Z" fill="white"/>
<path d="M123.09 58.52C119.32 55.07 114.6 53.64 110.71 54.37C110.25 55.94 110 57.63 110 59.41C110 67.25 114.87 73.6 120.87 73.6C123.78 73.6 126.41 72.11 128.36 69.68C128.44 65.94 126.59 61.74 123.08 58.52H123.09Z" fill="#333333"/>
</g>
<defs>
<clipPath id="clip0_14237_2371">
<rect width="155.61" height="146.89" fill="white"/>
</clipPath>
</defs>
</svg>
