<svg width="149" height="149" viewBox="0 0 149 149" fill="none" xmlns="http://www.w3.org/2000/svg">
<g clip-path="url(#clip0_14237_2329)">
<path d="M91.72 0H56.44C48.09 0 40.08 3.32 34.17 9.22L9.22 34.17C3.32 40.08 0 48.09 0 56.44V91.72C0 100.07 3.32 108.08 9.22 113.99L34.17 138.94C40.08 144.85 48.09 148.16 56.44 148.16H91.72C100.07 148.16 108.08 144.84 113.99 138.94L138.94 113.99C144.85 108.08 148.16 100.07 148.16 91.72V56.44C148.16 48.09 144.84 40.08 138.94 34.17L113.99 9.22C108.08 3.32 100.07 0 91.72 0Z" fill="#3EB5D7"/>
<path d="M82.05 28.51C79.42 27.59 75.76 30.79 72.64 36.2C70.38 30.38 67.24 26.68 64.51 27.19C60.65 27.9 59.04 36.72 60.92 46.88C62.5 55.39 66.02 62.15 69.39 63.69C69.41 63.7 69.43 63.71 69.45 63.72C69.45 63.72 69.47 63.72 69.47 63.73C69.56 63.77 69.65 63.82 69.75 63.85C69.89 63.9 70.02 63.93 70.16 63.96C70.55 64.04 70.93 64.06 71.31 63.99C71.55 63.95 71.77 63.87 71.99 63.77C75.51 62.51 79.84 56.48 82.61 48.53C86.01 38.77 85.75 29.82 82.05 28.53V28.51Z" fill="white"/>
<path d="M77.41 59.25C79.44 56.53 81.39 52.8 82.89 48.51C83.94 45.49 84.64 42.54 85 39.88C83.86 38.09 82.39 37 80.78 37C77.19 37 74.28 42.37 74.28 49C74.28 53.35 75.54 57.14 77.41 59.25Z" fill="#333333"/>
<path d="M122.05 28.51C119.42 27.59 115.76 30.79 112.64 36.2C110.38 30.38 107.24 26.68 104.51 27.19C100.65 27.9 99.04 36.72 100.92 46.88C102.5 55.39 106.02 62.15 109.39 63.69C109.41 63.7 109.43 63.71 109.45 63.72C109.45 63.72 109.47 63.72 109.47 63.73C109.56 63.77 109.65 63.82 109.75 63.85C109.89 63.9 110.02 63.93 110.16 63.96C110.55 64.04 110.93 64.06 111.31 63.99C111.55 63.95 111.77 63.87 111.99 63.77C115.51 62.51 119.84 56.48 122.61 48.53C126.01 38.77 125.75 29.82 122.05 28.53V28.51Z" fill="white"/>
<path d="M117.41 59.25C119.44 56.53 121.39 52.8 122.89 48.51C123.94 45.49 124.64 42.54 125 39.88C123.86 38.09 122.39 37 120.78 37C117.19 37 114.28 42.37 114.28 49C114.28 53.35 115.54 57.14 117.41 59.25Z" fill="#333333"/>
</g>
<defs>
<clipPath id="clip0_14237_2329">
<rect width="148.16" height="148.16" fill="white"/>
</clipPath>
</defs>
</svg>
