<svg width="148" height="148" viewBox="0 0 148 148" fill="none" xmlns="http://www.w3.org/2000/svg">
<g clip-path="url(#clip0_14237_2323)">
<path d="M20.24 127.2C54.12 161.08 111.83 151.05 131.45 107.35C150.5 64.9099 153.37 29.7499 135.53 11.9099C117.69 -5.92006 82.53 -3.05006 40.09 15.9899C-3.62001 35.6099 -13.64 93.3299 20.24 127.2Z" fill="#3EB5D7"/>
<path d="M76.02 48.21H76C70.98 42.76 64.54 40.01 58.07 40.05H58.05H58.03C51.56 40.01 45.11 42.76 40.1 48.21H40.08H40.09L40.08 48.23H40.1C45.12 53.68 51.56 56.43 58.03 56.39H58.05H58.07C64.54 56.43 70.99 53.68 76 48.23H76.02H76.01L76.02 48.21Z" fill="white"/>
<path d="M55 41.8C51.45 41.8 48.58 44.6701 48.58 48.2201C48.58 51.7701 51.45 54.64 55 54.64C58.55 54.64 61.42 51.7701 61.42 48.2201C61.42 44.6701 58.55 41.8 55 41.8ZM52.87 49.25C51.53 49.25 50.44 48.16 50.44 46.82C50.44 45.48 51.53 44.39 52.87 44.39C54.21 44.39 55.3 45.48 55.3 46.82C55.3 48.16 54.21 49.25 52.87 49.25Z" fill="#333333"/>
<path d="M133.06 48.21H133.04C128.02 42.76 121.58 40.01 115.11 40.05H115.09H115.07C108.6 40.01 102.15 42.76 97.14 48.21H97.12H97.13L97.12 48.23H97.14C102.16 53.68 108.6 56.43 115.07 56.39H115.09H115.11C121.58 56.43 128.03 53.68 133.04 48.23H133.06H133.05L133.06 48.21Z" fill="white"/>
<path d="M112.05 41.8C108.5 41.8 105.63 44.6701 105.63 48.2201C105.63 51.7701 108.5 54.64 112.05 54.64C115.6 54.64 118.47 51.7701 118.47 48.2201C118.47 44.6701 115.6 41.8 112.05 41.8ZM109.92 49.25C108.58 49.25 107.49 48.16 107.49 46.82C107.49 45.48 108.58 44.39 109.92 44.39C111.26 44.39 112.35 45.48 112.35 46.82C112.35 48.16 111.26 49.25 109.92 49.25Z" fill="#333333"/>
</g>
<defs>
<clipPath id="clip0_14237_2323">
<rect width="147.44" height="147.44" fill="white"/>
</clipPath>
</defs>
</svg>
