<svg width="163" height="160" viewBox="0 0 163 160" fill="none" xmlns="http://www.w3.org/2000/svg">
<g clip-path="url(#clip0_14237_2401)">
<path d="M99.86 131.27C96.9 138.52 93.14 144.12 87.93 148.73C73.75 161.25 52.95 162.57 36.97 151.9C21.53 141.6 14.7 121.48 20.92 103.95C21.95 101.06 21.52 99.81 18.92 98.03C4.30001 88 -2.22999 73.89 0.680007 56.42C3.61001 38.86 14.31 27.51 31.58 22.77C41.55 20.03 51.21 21.35 60.47 25.86C61.13 26.18 61.82 26.45 63.5 27.19C63.67 26.17 63.62 25.14 64 24.32C73.57 3.73001 97.04 -5.38999 118.06 3.25001C138.51 11.66 148.74 35.05 141.09 56.08C140.42 57.93 140.61 58.82 142.34 59.9C168.71 76.32 169.39 113.61 143.43 130.53C130.6 138.89 116.82 139.59 102.79 133.26C101.87 132.84 101.09 132.12 99.86 131.28V131.27Z" fill="#3EB5D7"/>
<path d="M81.34 86.66C86.2001 86.66 90.14 82.7201 90.14 77.86C90.14 72.9999 86.2001 69.06 81.34 69.06C76.4799 69.06 72.54 72.9999 72.54 77.86C72.54 82.7201 76.4799 86.66 81.34 86.66Z" fill="white"/>
<path d="M81.13 75.44C81.37 75.35 81.63 75.3 81.9 75.3C83.13 75.3 84.13 76.3 84.13 77.53C84.13 78.76 83.13 79.76 81.9 79.76C81.2 79.76 80.57 79.43 80.16 78.93C80.46 81.16 82.37 82.88 84.68 82.88C87.2 82.88 89.25 80.84 89.25 78.31C89.25 75.78 87.21 73.74 84.68 73.74C83.25 73.74 81.97 74.4 81.13 75.44Z" fill="#333333"/>
<path d="M108.34 86.66C113.2 86.66 117.14 82.7201 117.14 77.86C117.14 72.9999 113.2 69.06 108.34 69.06C103.48 69.06 99.54 72.9999 99.54 77.86C99.54 82.7201 103.48 86.66 108.34 86.66Z" fill="white"/>
<path d="M108.13 75.44C108.37 75.35 108.63 75.3 108.9 75.3C110.13 75.3 111.13 76.3 111.13 77.53C111.13 78.76 110.13 79.76 108.9 79.76C108.2 79.76 107.57 79.43 107.16 78.93C107.46 81.16 109.37 82.88 111.68 82.88C114.2 82.88 116.25 80.84 116.25 78.31C116.25 75.78 114.21 73.74 111.68 73.74C110.25 73.74 108.97 74.4 108.13 75.44Z" fill="#333333"/>
</g>
<defs>
<clipPath id="clip0_14237_2401">
<rect width="162.51" height="159.09" fill="white"/>
</clipPath>
</defs>
</svg>
