<svg width="147" height="147" viewBox="0 0 147 147" fill="none" xmlns="http://www.w3.org/2000/svg">
<g clip-path="url(#clip0_14237_2315)">
<path d="M49.7782 9.66227L9.65692 49.7835C-3.28115 62.7216 -3.28115 83.6983 9.65692 96.6364L49.7782 136.758C62.7162 149.696 83.693 149.696 96.6311 136.758L136.752 96.6364C149.69 83.6983 149.69 62.7216 136.752 49.7835L96.6311 9.66227C83.693 -3.2758 62.7162 -3.2758 49.7782 9.66227Z" fill="#EB3E5B"/>
<path d="M65.91 53.51C70.991 53.51 75.11 49.391 75.11 44.31C75.11 39.229 70.991 35.11 65.91 35.11C60.8289 35.11 56.71 39.229 56.71 44.31C56.71 49.391 60.8289 53.51 65.91 53.51Z" fill="white"/>
<path d="M63.65 52.5801C66.9692 52.5801 69.66 49.8893 69.66 46.5701C69.66 43.2508 66.9692 40.5601 63.65 40.5601C60.3308 40.5601 57.64 43.2508 57.64 46.5701C57.64 49.8893 60.3308 52.5801 63.65 52.5801Z" fill="#333333"/>
<path d="M65.0601 46.4301C66.9931 46.4301 68.5601 44.8631 68.5601 42.9301C68.5601 40.9971 66.9931 39.4301 65.0601 39.4301C63.1271 39.4301 61.5601 40.9971 61.5601 42.9301C61.5601 44.8631 63.1271 46.4301 65.0601 46.4301Z" fill="white"/>
<path d="M102.91 53.51C107.991 53.51 112.11 49.391 112.11 44.31C112.11 39.229 107.991 35.11 102.91 35.11C97.8289 35.11 93.71 39.229 93.71 44.31C93.71 49.391 97.8289 53.51 102.91 53.51Z" fill="white"/>
<path d="M100.65 52.5801C103.969 52.5801 106.66 49.8893 106.66 46.5701C106.66 43.2508 103.969 40.5601 100.65 40.5601C97.3308 40.5601 94.64 43.2508 94.64 46.5701C94.64 49.8893 97.3308 52.5801 100.65 52.5801Z" fill="#333333"/>
<path d="M102.06 46.4301C103.993 46.4301 105.56 44.8631 105.56 42.9301C105.56 40.9971 103.993 39.4301 102.06 39.4301C100.127 39.4301 98.5601 40.9971 98.5601 42.9301C98.5601 44.8631 100.127 46.4301 102.06 46.4301Z" fill="white"/>
</g>
<defs>
<clipPath id="clip0_14237_2315">
<rect width="146.43" height="146.43" fill="white"/>
</clipPath>
</defs>
</svg>
